<svg width="46" height="46" viewBox="0 0 46 46" fill="none" xmlns="http://www.w3.org/2000/svg">
<path d="M36.2651 21.7765C35.4967 20.047 34.3796 18.4947 32.9838 17.2167L31.832 16.1599C31.7929 16.125 31.7458 16.1002 31.6949 16.0877C31.644 16.0753 31.5908 16.0755 31.54 16.0884C31.4892 16.1013 31.4423 16.1265 31.4035 16.1617C31.3647 16.1969 31.3352 16.2411 31.3174 16.2905L30.8029 17.7669C30.4823 18.6931 29.8925 19.6391 29.0574 20.5692C29.0019 20.6286 28.9386 20.6444 28.8951 20.6484C28.8515 20.6523 28.7842 20.6444 28.7249 20.589C28.6695 20.5415 28.6417 20.4703 28.6457 20.399C28.7922 18.0162 28.0797 15.3286 26.5202 12.4036C25.2298 9.97329 23.4368 8.07734 21.1965 6.75532L19.5618 5.79349C19.348 5.66683 19.0749 5.83307 19.0868 6.08244L19.1739 7.98234C19.2333 9.28061 19.0828 10.4285 18.7266 11.3824C18.2912 12.55 17.6658 13.6346 16.8663 14.6083C16.3099 15.285 15.6792 15.897 14.9862 16.433C13.317 17.7161 11.9598 19.3601 11.0162 21.2421C10.0748 23.1405 9.58446 25.2306 9.58331 27.3495C9.58331 29.2177 9.95142 31.0266 10.6797 32.7326C11.3829 34.3751 12.3978 35.8657 13.6681 37.1221C14.9505 38.3888 16.4388 39.3862 18.0973 40.0789C19.8151 40.7993 21.6358 41.1634 23.516 41.1634C25.3961 41.1634 27.2168 40.7993 28.9346 40.0828C30.589 39.3942 32.0934 38.3899 33.3638 37.1261C34.6462 35.8595 35.6516 34.3792 36.3522 32.7365C37.0794 31.0352 37.4524 29.2037 37.4486 27.3535C37.4486 25.4219 37.0528 23.5457 36.2651 21.7765V21.7765Z" fill="#E55C5C"/>
</svg>
