<svg width="211" height="102" viewBox="0 0 211 102" fill="none" xmlns="http://www.w3.org/2000/svg">
<path d="M64.7203 38.8522C64.685 40.3986 64.6901 41.9031 64.5839 43.4493C64.5035 44.649 65.0746 45.7181 64.9262 46.8995C64.7339 48.4245 63.9021 48.2837 62.3865 48.5444C60.5673 48.8608 58.7444 49.0835 56.9367 49.398C54.5033 49.8213 51.8788 49.6915 49.4998 49.0079C44.8165 47.6637 40.755 44.9306 37.3974 41.4149C31.1301 34.8471 27.4082 25.016 27.0582 15.983C26.9767 13.9776 26.75 11.0869 25.5167 9.40053C24.6481 8.20911 22.5637 6.87499 25.2152 6.95311C26.7817 7.0028 27.9164 7.83767 29.2903 8.36762C30.6823 8.90049 32.1838 8.91363 33.6756 9.01102C35.0878 9.09195 36.4883 9.31648 37.886 9.48835C46.9817 10.5624 53.9822 18.0723 58.9872 25.1131C61.9325 29.2455 64.8266 33.6047 64.7203 38.8522Z" fill="#78AF02"/>
<path opacity="0.42" d="M58.7388 49.12C58.1391 49.2066 57.5346 49.3 56.9435 49.403C54.5102 49.8262 51.8857 49.6964 49.5067 49.0128C44.8233 47.6687 40.7619 44.9356 37.4043 41.4198C31.1303 34.8472 27.4084 25.0161 27.0584 15.9831C26.9769 13.9777 26.7502 11.0871 25.5169 9.40066C24.6483 8.20924 22.5639 6.87511 25.2154 6.95324C26.4075 6.98767 27.3572 7.48693 28.3425 7.95084C30.0391 9.65559 30.8506 11.9012 32.4021 13.8364C33.0399 14.6289 33.722 15.3315 34.2936 16.188C34.4348 16.4009 35.5596 18.9729 35.4285 18.9295C33.7369 18.3336 32.6202 17.1771 31.4752 15.848C30.4906 14.7052 29.1342 12.4841 27.5798 12.1491C26.0429 15.3353 30.8492 18.1467 32.4477 20.0447C30.8539 19.3974 29.8521 17.8265 28.3284 17.0673C28.8539 18.0022 28.3812 19.4375 28.8488 20.5236C29.3317 21.6308 30.1643 22.2791 31.2952 22.6955C33.0757 23.3653 34.755 23.9218 36.5307 24.2028C38.4155 24.5012 40.4576 23.8884 42.0815 25.186C40.8191 26.5208 37.3457 25.3558 35.891 24.9808C35.0594 24.7691 28.7776 22.7135 28.8376 22.4321C27.7246 27.7681 35.4299 30.0445 39.1549 30.082C40.396 30.0907 41.6411 29.9807 42.8813 29.9482C43.522 29.9316 45.6928 30.3542 46.1647 30.0642C42.6182 32.2641 37.6394 31.5292 33.9569 30.1329C33.1015 29.8129 32.2474 29.3924 31.378 29.3463C29.6603 33.2646 35.3393 34.3095 37.8161 34.5461C39.8486 34.7377 41.9262 35.3469 43.9757 35.2464C45.4458 35.1762 46.8229 34.3597 48.2693 34.1812C46.6191 35.4911 44.0325 35.9159 41.9725 35.9886C39.5007 36.0699 36.9431 34.8016 34.4926 35.1923C33.869 36.8944 37.5231 39.3756 38.7551 39.9761C41.1425 41.1424 44.4686 41.0153 47.0665 41.055C48.5335 41.0738 49.9552 40.4212 51.3247 39.9543C52.1413 39.6785 54.5873 39.5483 55.1429 39.0852C53.8696 40.1384 51.8899 40.6642 50.2937 41.009C49.2733 41.2297 48.2444 41.4341 47.2051 41.5399C46.2808 41.6267 44.9516 41.2606 44.1026 41.4827C41.7722 42.1015 43.1998 43.7855 44.7388 44.1703C48.1459 45.0039 51.3634 45.0421 54.7615 44.4192C53.0706 44.7264 51.7004 45.4767 49.8032 45.5345C47.9108 45.5855 46.1332 44.8976 44.1932 45.2693C44.2973 47.4127 51.6023 48.0429 53.0901 48.1882C54.8173 48.3532 56.4946 48.1072 58.1334 47.5902C58.9911 47.3135 60.492 46.3528 61.5929 46.1189C61.9014 46.0564 62.1715 46.0475 62.3858 46.1303C62.6001 46.2132 59.7379 48.5899 59.3726 48.7738C59.1607 48.8854 58.944 49.0036 58.7388 49.12Z" fill="#A3CE24"/>
<path opacity="0.42" d="M49.5067 49.0128C44.8233 47.6686 40.7619 44.9355 37.4043 41.4198C31.1303 34.8472 27.4084 25.0161 27.0584 15.9831C26.9769 13.9777 26.7502 11.087 25.5169 9.40064C24.6483 8.20922 22.5639 6.8751 25.2153 6.95322C26.7158 6.99605 27.8162 7.76571 29.1125 8.29069C30.2299 9.16382 31.1517 10.1399 31.6262 11.5554C31.6613 11.6618 31.6984 11.7797 31.7288 11.8927C32.4058 14.3257 30.5973 13.7373 29.1049 14.3188C26.746 15.2316 29.4067 17.4864 30.7416 18.2825C31.8528 18.9382 34.0847 19.0498 34.711 20.2397C32.9354 21.5407 30.6487 19.9092 28.8421 19.3323C28.1842 22.9466 34.0014 23.898 36.6389 23.7836C39.8118 23.658 37.5276 25.3849 35.8237 25.9363C34.7254 26.2937 33.7877 26.371 32.6359 26.2945C31.8125 26.2408 30.6105 25.8952 29.8956 26.1424C31.6614 27.765 33.5481 28.8659 35.9942 29.5268C37.2622 29.8793 39.0223 30.2809 40.3829 30.3349C41.5884 30.3789 42.9726 29.8211 44.0589 30.4691C43.7959 31.9231 40.0814 32.3088 38.9139 32.3529C36.105 32.4659 34.0484 31.9123 31.4294 31.0969C31.4459 32.204 32.9406 33.4697 33.8115 34.0645C35.0736 34.9198 36.6986 34.9303 38.167 35.1732C39.8852 35.4636 41.6944 35.7686 43.428 35.6138C44.4807 35.5176 46.9886 34.3266 47.8148 34.8284C47.2474 36.2261 44.6624 37.1996 43.3446 37.6935C40.9982 38.5747 38.1421 38.4003 35.8269 37.4583C35.8515 38.3987 38.0299 39.6583 38.8103 40.0969C42.8384 42.3396 47.4889 41.3988 51.7238 40.0481C52.7617 39.7183 53.9682 38.9416 53.3714 40.663C53.0416 41.6025 52.1621 42.1779 51.2438 42.553C48.4832 43.7147 45.3653 42.8455 42.5149 43.1011C43.899 43.7297 45.5941 44.4902 47.1279 44.6279C49.6968 45.5696 52.8003 44.0152 55.2478 44.9001C53.7146 46.1317 51.8897 46.4137 49.9633 46.2578C48.6957 46.1591 47.0528 45.2129 45.8052 45.524C44.528 45.8341 44.7475 46.5595 45.7667 47.2304C47.4829 48.3711 50.0543 47.8544 51.9821 48.2344C52.854 48.404 53.2214 48.1607 52.8635 49.2525C52.8278 49.3587 52.7692 49.4687 52.6971 49.5691C51.6161 49.4928 50.5412 49.3092 49.5067 49.0128Z" fill="#A3CE24"/>
<path opacity="0.42" d="M46.9452 44.5576C47.0083 44.5827 47.0695 44.5962 47.1327 44.6213C47.1739 44.6204 47.2236 44.6358 47.2648 44.635C47.1567 44.5878 47.0524 44.5636 46.9452 44.5576Z" fill="#A3CE24"/>
<path d="M56.9436 49.403C54.5102 49.8262 51.8857 49.6965 49.5067 49.0128C49.0924 48.8979 48.6838 48.7466 48.2839 48.6115C48.7806 48.7248 49.2639 48.8284 49.6919 48.8821C51.9176 49.1718 55.2693 49.1644 57.1791 47.8178C57.6175 47.5037 57.9603 47.111 58.2027 46.6462C59.0262 45.047 56.7905 44.5169 55.6827 44.4214C53.877 44.2811 52.0082 44.9068 50.2284 45.14C48.0722 45.4174 44.4218 45.0075 42.1174 43.556C45.7445 44.9024 54.5775 45.7067 55.7183 41.1512C55.7715 40.9359 55.7099 40.6686 55.4726 40.5895C53.1395 39.8983 50.9912 40.8709 48.6435 41.1325C46.4011 41.3886 40.0442 40.7089 39.0705 40.2431C42.5217 40.6621 46.7561 40.315 49.5665 38.7732C51.2493 37.8416 50.061 35.7818 48.6728 35.272C46.7611 34.5588 44.6204 35.5774 42.6058 35.4596C40.3127 35.3345 38.0667 35.1012 35.827 34.619C35.2345 34.4979 34.6691 34.2543 34.0846 34.0374C32.9967 33.6317 31.914 33.0775 31.4196 31.9722C32.9914 33.4555 35.2211 33.6973 37.244 33.9022C39.4518 34.1182 41.6547 34.3408 43.658 33.1322C44.3514 32.7173 46.4649 31.4966 45.7464 30.3927C45.1215 29.4269 42.2468 29.7868 41.2709 29.8467C39.135 29.9968 37.2627 29.6668 35.1837 29.2998C33.3296 28.9727 31.9454 28.3441 30.5725 26.9935C32.9824 28.3686 35.7318 28.7199 38.4596 28.508C39.7593 28.4067 42.658 27.6179 41.4723 25.6816C40.4927 24.0657 37.7805 24.5524 36.233 24.5468C33.9146 24.5557 31.4328 23.2101 29.4752 22.109C30.7665 22.316 31.9726 22.9385 33.2998 22.9684C33.9921 22.9787 35.4217 23.0214 35.9828 22.6636C37.2267 21.8631 35.7875 21.4383 35.0632 21.1618C33.0052 20.3841 31.4199 19.3576 29.7542 17.9488C28.3971 16.8022 27.6668 15.4464 27.1489 13.7665C27.7938 15.6085 29.2981 16.4654 30.8173 17.485C31.9436 18.2327 33.3696 19.368 34.8031 18.5718C35.1224 18.3954 35.1942 18.0412 35.5123 17.9654C36.0795 17.825 36.5514 18.326 36.9663 18.6238C37.3544 18.9025 37.7688 19.0174 38.1694 19.2645C39.1763 19.896 39.1072 21.1647 39.623 22.113C40.1932 23.1409 41.1393 23.9418 41.9446 24.7835C42.9505 25.8403 43.9467 26.9104 44.9411 27.969C46.8944 30.0507 48.8401 32.1573 50.8049 34.2371C53.4241 37.03 55.9847 39.8619 58.4436 42.7933C60.1825 44.863 61.4227 46.017 63.947 46.7948C64.1776 46.8691 64.5174 46.9609 64.904 47.0863C64.6672 48.3766 63.843 48.2818 62.4079 48.5292C60.5742 48.8658 58.7513 49.0884 56.9436 49.403Z" fill="#6D9E02"/>
<path d="M57.9435 44.4926C56.2983 43.2811 54.8117 41.8489 53.2645 40.5151C49.8595 37.5738 46.1453 34.583 43.3489 31.0341C40.4713 27.3864 37.5993 23.8441 34.9942 19.9864C32.5589 16.3723 30.012 12.2217 26.8177 9.26949C26.1421 8.64256 25.1332 8.07039 24.3077 7.68059C24.2178 7.63633 24.1116 7.60064 23.9939 7.56685C23.8043 7.16708 24.0347 6.91673 25.2269 6.95116C26.7934 7.00085 27.9281 7.83571 29.302 8.36566C30.694 8.89853 32.1955 8.91168 33.6872 9.00907C35.0995 9.08999 36.5 9.31453 37.8977 9.48639C46.9934 10.5604 53.9939 18.0704 58.9989 25.1111C61.9394 29.2502 64.8335 33.6094 64.7205 38.8521C64.6852 40.3986 64.6903 41.903 64.5841 43.4493C64.5037 44.649 65.0748 45.7181 64.9264 46.8994C64.8473 47.5322 64.655 47.8707 64.3462 48.0749C62.1027 47.1742 60.0322 46.0326 57.9435 44.4926Z" fill="#61A304"/>
<path opacity="0.6" d="M26.8062 9.27157C26.1307 8.64464 25.1217 8.07246 24.2963 7.68267C24.2063 7.6384 24.1001 7.60272 23.9824 7.56892C23.7928 7.16915 24.0232 6.9188 25.2154 6.95323C25.3274 6.95254 25.4366 6.97004 25.539 6.98273C25.4976 7.05446 25.4697 7.13579 25.4733 7.22964C25.4913 7.69891 26.33 8.16918 26.6713 8.41418C27.2353 8.82921 27.6066 9.32901 28.0363 9.86055C29.565 11.7287 30.8693 13.7399 32.4047 15.6128C33.2029 16.5914 35.0354 20.3812 36.3747 20.5213C37.5868 20.6411 37.007 19.231 36.7372 18.3073C36.4266 17.2426 35.841 16.6599 35.3663 15.7108C34.8622 14.6897 34.5718 13.5686 33.9258 12.6181C33.149 11.4824 32.2843 10.6386 31.3885 9.6406C32.9863 10.24 34.1891 12.6044 35.062 14.0017C36.2946 15.9715 37.2111 17.9579 37.7832 20.1838C38.2577 21.9948 38.5893 23.5105 39.8893 24.9204C40.1051 25.1564 40.4426 25.7739 40.7993 25.5737C41.2846 25.2933 40.9951 24.2134 41.0565 23.7606C41.2071 22.8445 41.4303 22.011 41.468 21.0544C41.5352 19.3787 41.3362 17.6641 41.2914 15.9892C41.2479 14.5383 40.8391 12.8759 40.1105 11.6024C41.8023 14.5712 42.6553 17.4652 42.3665 20.9186C42.271 22.0264 42.3726 23.1844 42.2226 24.2833C42.0647 25.4072 41.9289 26.557 42.4406 27.624C42.9228 28.6192 43.8247 29.51 44.5609 30.363C45.5694 31.5433 46.0551 31.0503 46.4097 29.723C47.0232 27.4558 46.7721 25.1359 47.2045 22.8808C47.5982 20.8209 46.9028 18.4559 46.6884 16.3956C46.5249 14.7165 46.038 13.2617 45.3642 11.9261C45.4158 11.9531 45.4675 11.98 45.5191 12.0069C45.5774 12.0387 45.6358 12.0704 45.696 12.1136C47.9133 14.76 48.0778 18.4577 48.5131 21.8631C48.5142 22.2289 48.5104 22.6014 48.5066 22.9739C48.44 25.228 48.3378 27.5174 48.4493 29.7776C48.525 31.353 48.319 33.0102 49.777 34.0163C50.322 34.3872 51.156 34.7933 51.7126 34.3005C51.9698 34.0694 52.1587 33.5661 52.2724 33.2523C53.3366 30.3149 53.0726 26.9818 53.236 23.915C53.3392 21.9914 53.361 20.0398 53.2316 18.1013C53.2517 18.1157 53.2669 18.1368 53.2822 18.1579C53.2889 18.1627 53.2956 18.1675 53.2975 18.179C54.4832 20.1153 54.4249 22.4565 54.5021 24.6515C54.5406 25.7845 54.6717 27.0144 54.557 28.1489C54.4568 29.1924 54.4026 30.2284 54.314 31.2701C54.183 32.8087 53.9871 34.2398 54.016 35.7816C54.0466 37.8013 54.6135 41.0375 57.0899 41.4159C58.7067 41.6639 59.5563 38.7854 59.9697 37.6727C60.9171 35.1383 60.7781 31.9558 60.6859 29.2733C60.6634 28.669 60.6294 28.0666 60.5839 27.466C60.7575 27.7327 60.9379 28.0041 61.1048 28.2659C61.517 28.9066 61.4853 30.1514 61.6444 30.9045C61.8641 31.9545 61.4994 33.1124 61.4412 34.1963C61.3241 36.3228 61.1741 39.0038 60.3172 40.9744C59.9445 41.8325 58.9358 44.8198 60.9573 44.4052C63.0296 43.9763 64.2297 41.0757 64.6751 39.0428C64.6466 40.5232 64.6441 41.9816 64.5467 43.4733C64.4663 44.673 65.0374 45.7421 64.889 46.9234C64.81 47.5562 64.6176 47.8948 64.3088 48.099C62.3361 47.3014 60.5027 46.3097 58.6719 45.0461C56.9533 43.7109 55.2731 42.3222 53.6284 40.8982C53.4908 40.7791 53.3532 40.6601 53.2156 40.541C53.0292 40.3768 52.8381 40.2193 52.6518 40.0551C52.0373 39.5126 51.4114 38.972 50.8017 38.4228C48.5685 36.4342 46.2013 34.4205 44.211 32.1501C43.8987 31.794 43.5912 31.4313 43.3 31.06C40.4225 27.4124 37.5504 23.87 34.9453 20.0123C33.5406 17.9291 32.1279 15.6169 30.4925 13.5302C29.3806 11.9714 28.1554 10.5139 26.8062 9.27157Z" fill="#468E02"/>
<path opacity="0.31" d="M61.4275 42.3799C60.6653 41.5488 61.7875 37.994 61.9583 37.0215C62.6453 33.2252 62.5131 30.0475 59.7124 27.0838C58.8565 26.1854 58.1129 25.611 57.5187 26.9895C56.7754 28.7172 57.1872 32.7344 57.3082 34.5857C57.3664 35.4793 57.9807 40.514 55.8833 39.424C54.7604 38.841 54.964 35.803 54.8831 34.7715C54.703 32.3809 54.6501 30.0815 55.0168 27.6778C55.2415 26.2065 56.1629 23.694 55.6799 22.2622C55.0894 20.4997 51.0645 18.0971 50.9898 21.3087C50.9308 23.6088 50.9828 25.867 50.8117 28.1677C50.7572 28.9499 50.7064 33.781 49.528 32.8234C48.7117 32.1665 48.9494 29.2645 48.8483 28.2894C48.5986 25.7981 48.3704 23.0789 48.5094 20.5827C48.5955 19.022 48.9377 16.4689 47.0904 15.6802C45.6937 15.0832 45.387 16.4145 45.1681 17.4539C44.6228 20.064 45.732 23.9431 44.1771 26.2645C42.924 28.1231 42.7413 25.6089 42.5909 24.4058C42.3738 22.6883 42.4201 20.957 42.3954 19.2256C42.3643 17.814 42.5 13.8958 40.2148 14.0704C39.9243 15.3931 41.1633 19.487 39.2859 20.0964C38.1762 20.4557 38.1364 17.8413 37.9272 17.2146C37.3074 15.3093 35.5549 11.3234 33.3466 10.9246C32.0959 12.9776 36.2235 15.2512 35.1641 17.3909C33.534 16.6669 32.5572 15.1037 31.5022 13.748C30.537 12.5076 29.1696 11.2623 27.7721 10.2286C27.4521 9.89744 27.1339 9.5778 26.7995 9.26674C26.124 8.63981 25.1151 8.06764 24.2896 7.67784C24.1997 7.63358 24.0934 7.59789 23.9757 7.5641C23.7861 7.16432 24.0165 6.91397 25.2087 6.94841C26.7752 6.9981 27.9099 7.83296 29.2838 8.36291C30.6759 8.89578 32.1774 8.90893 33.6691 9.00632C35.0814 9.08724 36.4818 9.31178 37.8795 9.48364C46.9752 10.5577 53.9757 18.0676 58.9807 25.1084C61.4526 28.5866 63.885 32.2188 64.531 36.4042C64.4004 36.9392 64.0288 37.3721 63.1828 37.576C63.6488 38.5088 62.6482 43.7024 61.4275 42.3799Z" fill="#A3CE24"/>
<path d="M30.3485 13.2645C30.2502 13.1331 30.1518 13.0016 30.0487 12.8769C31.7186 14.1669 33.2439 16.6613 34.4409 18.271C35.4327 19.6016 36.2849 22.0589 37.6059 23.058C37.9187 21.6194 37.0356 19.2616 36.4403 17.9014C37.5994 19.352 38.0722 21.0807 38.4999 22.8581C38.9086 24.5205 39.3562 26.3831 41.0628 27.1418C42.2195 25.9542 41.6055 23.6172 41.9949 22.1424C42.5746 24.4143 41.9856 27.6927 42.2382 28.5839C42.5943 29.8536 46.0481 32.7691 47.4023 33.1429C47.6301 32.3735 47.1939 31.3708 47.1585 30.5443C47.1193 29.6948 47.2727 28.8314 47.1646 27.9933C47.8669 29.8259 47.8631 31.4557 48.212 33.3287C48.5779 35.3051 50.1956 36.7808 51.6838 37.9708C53.564 35.7613 52.5086 32.1744 53.8512 29.7817C54.5374 31.1565 53.8129 33.3947 53.7117 34.8634C53.6093 36.4327 53.4984 37.9857 54.1431 39.5031C54.6421 40.6726 55.6689 42.1804 57.092 42.1474C58.5811 42.1212 59.975 39.8971 60.4835 38.6803C60.3998 40.4354 58.2881 42.5294 59.1524 44.3059C59.8395 45.722 61.2295 45.9187 62.5508 45.1941C63.7417 44.5381 64.1344 43.2989 64.6141 42.1222C64.5987 42.5674 64.5899 43.0175 64.5582 43.4713C64.4778 44.671 65.0489 45.7401 64.9005 46.9214C64.8214 47.5542 64.6291 47.8928 64.3203 48.097C62.9924 47.5595 61.7251 46.9235 60.4838 46.1946C57.375 43.5471 54.0368 41.1203 50.8628 38.507C48.1764 36.2034 45.473 33.7962 43.3163 31.0513C40.4388 27.4037 37.5667 23.8613 34.9616 20.0036C33.5655 17.9367 32.1296 15.6991 30.5632 13.6011C30.5127 13.4736 30.4297 13.3633 30.3485 13.2645Z" fill="#4A8209"/>
<path opacity="0.24" d="M34.8688 36.4762C35.7516 38.1139 36.8205 39.662 38.2373 41.0645C42.3214 45.122 51.3305 49.6221 56.9868 46.1078C56.2282 44.184 51.2252 42.7625 49.4687 41.6638C44.9803 38.8473 41.3771 34.699 38.2174 30.4838C35.2239 26.4891 33.8186 19.4062 28.697 17.5142C26.8823 19.9432 29.2344 23.5178 30.2682 25.6797C31.9737 29.3073 33.0296 33.0771 34.8688 36.4762Z" fill="#CCEA86"/>
<path opacity="0.2" d="M48.1796 16.7055C48.0676 16.7062 47.9767 16.6916 47.8857 16.677C47.8694 16.6856 47.8579 16.6875 47.8416 16.696C47.9641 16.7231 48.0714 16.7291 48.1796 16.7055Z" fill="#CCEA86"/>
<path opacity="0.2" d="M52.9319 19.6912C52.1409 19.2957 51.2751 19.3435 50.7476 18.4679C50.4147 17.9146 50.5993 17.2055 50.0393 16.7426C49.4591 16.2652 48.4506 16.3423 47.8857 16.6771C47.1076 16.5038 47.1911 15.6106 46.6206 15.1199C46.1724 14.7272 45.371 14.6994 44.8758 14.3439C43.7898 13.5542 43.6398 11.8138 42.5727 11.1391C41.4224 10.4248 40.1875 11.4245 39.122 11.2984C38.1704 11.1832 37.7274 10.2465 36.8104 10.0547C35.6915 9.81939 35.0974 10.8024 34.1661 10.6307C32.7121 10.3677 31.5501 9.72623 30.0314 9.68049C29.1179 9.65342 28.3448 9.7981 27.582 10.0414C27.326 9.77652 27.0699 9.51161 26.7995 9.26678C26.124 8.63985 25.1151 8.06768 24.2896 7.67788C24.1997 7.63362 24.0935 7.59793 23.9757 7.56414C23.7861 7.16436 24.0166 6.91402 25.2087 6.94845C26.7752 6.99814 27.9099 7.833 29.2838 8.36295C30.6759 8.89582 32.1774 8.90897 33.6691 9.00636C35.0814 9.08728 36.4818 9.31182 37.8795 9.48368C46.9752 10.5577 53.9757 18.0677 58.9807 25.1084C59.1401 25.3243 59.288 25.542 59.4426 25.7645C58.1718 24.1728 56.6468 22.7941 55.1274 21.4498C54.4336 20.82 53.7545 20.0992 52.9319 19.6912Z" fill="#CCEA86"/>
<path opacity="0.25" d="M36.864 37.4827C37.5133 38.2733 38.2665 38.8343 38.9543 39.5714C39.6706 40.3392 39.7971 41.5049 40.6441 42.1332C41.3352 42.6395 42.3761 42.687 43.1482 42.9675C44.236 43.3733 45.2247 44.0019 46.3259 44.4172C47.3774 44.8171 48.4155 45.2074 49.4959 45.4963C50.1008 45.6567 51.233 46.2972 51.8355 46.2632C52.3325 46.2347 52.6103 46.2009 52.6952 45.5317C52.8794 44.1733 50.9546 43.3796 50.0361 43.0346C48.3139 42.3966 46.3653 42.3565 44.8732 41.2144C43.6793 40.3066 42.8723 38.987 42.0852 37.7527C41.0052 36.0647 39.8737 34.279 38.6863 32.6559C37.5733 31.1268 36.113 30.3218 35.2294 28.5721C34.8339 27.7811 34.3888 27.2993 33.9614 26.6375C33.4795 25.8962 30.4492 18.0117 29.3846 19.1132C28.5053 20.0132 30.9475 24.3522 31.3385 25.4037C32.2092 27.7222 33.5013 30.0187 34.0721 32.416C34.5348 34.3707 35.6007 35.937 36.864 37.4827Z" fill="#CCEA86"/>
<g clip-path="url(#clip0_1902_337)">
<path d="M43.1643 70.8353C45.1767 67.9602 47.7187 65.5962 50.7055 65.1064C53.5652 64.6165 56.785 65.9796 59.3058 67.0657C64.5168 69.3871 67.4401 70.7927 71.7191 74.3494C75.0872 77.1606 78.7518 79.8653 81.3362 83.4858C83.5816 86.5739 84.4077 90.4926 87.2886 93.0909C90.8897 96.3281 91.0168 97.0309 86.992 99.693C74.3669 108.127 65.576 110.64 50.3877 107.999C43.4185 106.764 38.5888 105.443 37.4025 98.1383C36.4705 92.3668 37.1059 85.1683 38.8641 79.6311C39.7538 77.0115 41.1731 73.6678 43.1643 70.8353Z" fill="#FFC40C"/>
<path d="M51.7011 80.7386C49.9005 83.9758 48.5872 87.6815 48.5872 90.2159C48.5448 95.8383 57.6323 97.2865 61.7842 97.1161C67.4825 96.8819 73.5196 96.3281 79.1755 95.5827C77.1419 97.031 74.9177 98.2023 72.5664 99.1181C67.5036 101.12 62.2079 102.653 56.9121 103.378C51.1715 104.166 43.9693 105.124 40.9825 98.5431C38.8641 93.8151 39.3302 89.0658 39.6691 84.0823C40.0292 79.1626 44.0116 73.9661 47.8669 71.1123C48.8202 70.3882 50.0276 70.0048 51.3833 69.7918C58.3737 68.7696 62.6103 72.7096 67.1859 77.3524C68.7323 78.9496 70.0032 80.8664 71.7191 82.272C73.562 83.8054 76.4429 85.5518 78.7095 87.4898C75.0024 86.4888 71.1259 83.6137 67.9697 81.5479C65.3641 79.8441 62.7163 78.0339 59.7506 77.0329C55.5988 75.606 53.7982 77.0755 51.7011 80.7386Z" fill="#FFFA50"/>
<path d="M78.4129 87.298C80.7854 88.6398 84.0264 91.0676 83.0096 93.4955C82.0564 95.7317 77.5232 96.9031 75.4685 97.2864C72.291 97.8827 69.0924 98.0744 65.9149 98.4578C63.3306 98.7772 61.2335 99.5226 58.6068 99.0328C53.6499 98.117 49.5192 97.2012 48.8626 91.7491C48.0152 84.8276 53.9465 72.0279 62.8434 75.6059C66.0208 76.8837 67.1224 79.482 69.3466 81.6543C71.5072 83.784 74.261 85.2535 76.9725 86.51C77.3538 86.723 77.8622 86.9786 78.4129 87.298Z" fill="#FFE62E"/>
<path d="M50.7055 65.1064C53.5652 64.6165 56.785 65.9796 59.3058 67.0657C64.5168 69.3871 67.4401 70.7927 71.7191 74.3494C75.0872 77.1606 78.7518 79.8653 81.3362 83.4858C82.4165 84.9767 83.1791 86.6804 84.0052 88.3416C83.3909 87.4897 82.7766 86.6591 82.0564 85.9776C79.4721 83.4007 76.8454 80.6533 73.7738 78.6727C73.7314 78.6514 73.6891 78.6301 73.6679 78.6088C68.478 73.9447 61.8689 70.0047 56.785 70.5159C48.2271 71.389 41.8298 80.0144 41.2155 88.3842C40.3046 100.396 49.5828 105.017 60.4285 104.314C69.8338 103.718 82.0352 102.27 89.5552 95.9447C89.6611 95.9021 89.7247 95.8808 89.8094 95.8382C90.4237 97.0948 89.5552 97.9892 86.992 99.693C74.3669 108.127 65.576 110.64 50.3877 107.999C43.4185 106.764 38.5888 105.443 37.4025 98.1383C36.4705 92.3668 37.1059 85.1683 38.8641 79.6311C39.7115 77.0115 41.1519 73.6678 43.1219 70.8353C45.1979 67.9602 47.7187 65.5962 50.7055 65.1064Z" fill="#EF9818"/>
<path d="M45.219 81.7821C46.3841 78.9922 48.2694 76.5856 50.7266 74.4559C53.1839 72.2836 55.4928 72.5391 52.9509 75.6272C48.8413 80.6746 46.7654 83.4859 46.9772 90.1306C46.9984 91.8557 48.4812 96.4346 47.3373 97.329C43.9057 95.9234 43.6515 90.5991 43.8845 87.4897C44.0328 85.4239 44.4776 83.5285 45.219 81.7821Z" fill="white"/>
<path d="M79.6203 91.4084C79.578 91.025 79.4932 90.6417 79.3661 90.3648C78.9425 89.4916 77.9045 88.7462 77.1207 88.2138C76.4005 87.7239 75.4685 87.4045 75.066 86.5952C75.9557 86.1267 77.9892 87.511 78.7095 87.9795C79.7263 88.6397 80.7642 89.3851 81.5268 90.3648C82.0988 91.0889 82.4801 91.9408 82.2894 92.8779C82.0988 93.7511 81.548 94.5391 80.5948 94.0066C79.7898 93.5807 79.7686 92.4093 79.6203 91.4084Z" fill="white"/>
</g>
<g clip-path="url(#clip1_1902_337)">
<path d="M110.42 45.8199C113.34 43.4199 117.27 42.7099 121.01 42.1899C122.29 42.0099 123.61 41.8499 124.86 42.1899C126.85 42.7199 128.54 44.4799 130.6 44.3199C131.17 44.2799 131.77 44.0799 132.3 44.2899C132.99 44.5599 133.28 45.4299 133.14 46.1599C133 46.8899 132.54 47.5099 132.09 48.0999C126.74 55.0799 120.82 62.4599 112.37 64.8899C110.18 65.5199 107.59 65.7699 105.47 64.7599C102.75 63.4699 102.73 61.3799 103.31 58.7299C104.35 53.8699 106.5 49.0499 110.42 45.8199Z" fill="#D5D458"/>
<path opacity="0.62" d="M105.82 64.9099C108.59 64.5299 111.12 63.2199 113.49 61.8099C115.44 60.6499 117.53 59.4499 119.31 58.0499C120.51 57.1099 121.21 55.6899 121.88 54.3199C122.34 53.3799 122.8 52.4399 123.26 51.4899C123.52 50.9599 123.78 50.4199 123.85 49.8299C122.65 50.2699 121.45 50.7099 120.26 51.1499C121.22 50.7999 122.36 49.3499 123.14 48.6699C123.54 48.3299 124.98 47.4799 124.48 46.7399C124.28 46.4399 123.89 46.3399 123.53 46.2899C122.4 46.1199 121.22 46.2399 120.14 46.6299C120.89 45.7599 122.07 45.3999 123.2 45.1999C123.5 45.1499 123.83 45.0899 124.04 44.8599C123.71 44.5599 123.22 44.5099 122.77 44.4899C120.34 44.3799 117.89 44.6399 115.54 45.2499C116.34 44.8499 117.14 44.4599 117.99 44.1899C118.54 44.0199 119.11 43.8999 119.67 43.7799C120.88 43.5299 122.09 43.2799 123.31 43.0299C122.36 42.4699 120.76 42.4899 119.71 42.6799C118.9 42.8299 118 42.6599 117.21 42.8299C118.46 42.5599 119.74 42.3599 121 42.1899C122.28 42.0099 123.6 41.8499 124.85 42.1899C126.84 42.7199 128.53 44.4799 130.59 44.3199C131.16 44.2799 131.76 44.0799 132.29 44.2899C132.98 44.5599 133.27 45.4299 133.13 46.1599C133 46.8899 132.54 47.5099 132.09 48.0999C126.74 55.0799 120.82 62.4599 112.37 64.8899C110.3 65.4799 107.87 65.7299 105.82 64.9099Z" fill="#BFB939"/>
<path opacity="0.62" d="M129.05 48.3598C128.13 46.8198 128.65 45.5298 128.99 44.0798C129.51 44.2598 130.04 44.3598 130.6 44.3198C131.17 44.2798 131.77 44.0798 132.3 44.2898C132.99 44.5598 133.28 45.4298 133.14 46.1598C133 46.8898 132.54 47.5098 132.09 48.0998C131.59 48.7598 131.07 49.4198 130.56 50.0798C130.01 49.5498 129.45 49.0398 129.05 48.3598Z" fill="#FFEC9C"/>
<path opacity="0.68" d="M128.98 48.6098C129 48.4998 129.01 48.3898 129.01 48.2698C130.06 48.7198 131.19 47.8898 131.44 46.8298C131.61 46.1198 131.85 45.3898 131.47 44.7598C131.49 44.6198 131.17 44.3898 131.14 44.2498C131.54 44.1898 131.94 44.1498 132.31 44.2898C133 44.5598 133.29 45.4298 133.15 46.1598C133 46.8898 132.54 47.5098 132.09 48.0998C131.52 48.8398 130.95 49.5898 130.36 50.3298C129.55 49.9098 128.84 49.3198 128.98 48.6098Z" fill="#E8B769"/>
<path opacity="0.44" d="M111.76 47.7599C113.47 46.5799 115.37 45.6499 117.39 45.1799C119.95 44.5799 122.72 44.7399 125.09 45.8799C126.39 46.4999 127.63 47.5599 127.83 48.9799C128.18 51.5399 126.61 53.2399 125.17 55.0499C123.43 57.2499 121.17 59.0099 118.71 60.3599C115.58 62.0699 112.13 63.1299 108.65 63.9299C107.34 64.2299 105.72 64.3999 104.88 63.3399C104.3 62.6099 104.35 61.5699 104.49 60.6499C105.23 55.6799 107.58 50.6499 111.76 47.7599Z" fill="#E5DF6E"/>
<path opacity="0.65" d="M130.37 50.0699C130.4 50.0299 130.42 49.9999 130.45 49.9699C131.06 49.1099 131.96 47.5299 132.17 46.4899C132.4 45.3599 132.23 44.5299 131.34 44.2299C131.67 44.1899 132 44.1699 132.3 44.2899C132.99 44.5599 133.28 45.4299 133.14 46.1599C133 46.8899 132.54 47.5099 132.09 48.0999C131.55 48.7999 131 49.5099 130.45 50.2099C130.42 50.1599 130.4 50.1099 130.37 50.0699Z" fill="#A57329"/>
<path d="M108.87 61.87C108.71 61.9399 108.55 62.0099 108.39 62.0899C107.62 62.4499 106.44 63.0499 105.58 62.7299C104.57 62.3499 104.96 60.0899 105.14 59.1799C105.67 56.4099 107.45 54.2999 109.24 52.5299C110.17 51.5999 111.33 50.8999 112.61 50.8199C113.14 50.7899 113.68 50.8599 114.21 50.7999C115.32 50.6799 116.3 49.8999 117.42 49.8699C118.1 49.8499 119.06 49.9499 119.72 50.1399C120.27 50.2999 120.81 50.7299 120.98 51.3399C121.16 51.9699 120.92 52.6199 120.66 53.1699C118.92 56.8499 115.83 59.5899 112.24 60.6399C111.04 60.9899 109.98 61.37 108.87 61.87Z" fill="#E5DF6E"/>
<path opacity="0.77" d="M105.46 64.7599C104.7 64.3999 104.15 63.9699 103.77 63.4899C104.24 64.0799 106.28 63.6999 106.9 63.6399C108.34 63.4899 109.75 63.1599 111.12 62.7099C116.07 61.0899 122.01 58.3799 124.18 53.2999C123.75 53.5299 123.32 53.7599 122.89 53.9899C123.78 52.4699 124.82 51.0299 126.01 49.7299C126.18 49.5499 126.33 49.2199 126.12 49.0899C126.06 49.0499 125.98 49.0499 125.91 49.0199C125.66 48.9099 125.71 48.5499 125.67 48.2799C125.44 46.7799 118.97 48.3099 118.09 48.9599C119.42 47.9699 120.97 47.2899 122.6 46.9799C123.5 46.8099 124.41 46.7499 125.3 46.5499C125.43 46.5199 125.57 46.4799 125.66 46.3899C125.83 46.1999 125.73 45.8699 125.53 45.7199C125.37 45.6099 123.92 45.1899 123.8 45.2699C124.32 44.9399 124.88 44.6799 125.46 44.4999C125.04 44.4499 124.65 44.2799 124.33 43.9999C125.07 43.9599 125.81 43.8199 126.52 43.6099C125.57 43.0299 124.5 42.6499 123.39 42.4899C122.91 42.4199 122.41 42.5099 121.95 42.4499C121.65 42.4099 121.32 42.1699 121.01 42.2099C122.29 42.0299 123.61 41.8699 124.86 42.2099C126.44 42.6299 127.83 43.8199 129.37 44.2199C128.88 44.9099 128.62 45.7899 128.6 46.6199C128.57 48.0099 129.54 49.5699 131.05 49.4499C125.97 56.0099 120.27 62.6299 112.36 64.8999C110.18 65.5199 107.59 65.7599 105.46 64.7599Z" fill="#B9BC37"/>
<path opacity="0.68" d="M105.46 64.7598C105.15 64.6098 104.89 64.4498 104.65 64.2898C110.46 66.4298 116.69 63.0098 121.15 59.2698C122.48 58.1598 123.77 56.9798 124.95 55.7098C126.51 54.0298 127.55 52.1398 128.77 50.2298C127.29 50.1498 125.96 51.0898 124.78 51.9798C125.43 51.0098 126.56 50.4898 127.38 49.6698C127.58 49.4698 127.78 49.1698 127.66 48.9098C127.47 48.4998 126.72 48.6098 126.6 48.1798C126.86 47.9598 127.12 47.7398 127.38 47.5198C127.25 47.3698 127.07 47.2698 126.88 47.2498C127.07 46.6998 127.93 46.5198 127.95 45.9398C127.96 45.5598 127.59 45.2898 127.23 45.1698C126.87 45.0498 126.47 44.9798 126.22 44.7098C126.85 44.5998 127.49 44.5898 128.12 44.6998C127.8 44.6498 127.27 43.2698 126.84 43.0398C127.69 43.4898 128.52 43.9798 129.39 44.1998C128.9 44.8898 128.64 45.7698 128.62 46.5998C128.59 47.9898 129.56 49.5498 131.07 49.4298C125.99 55.9898 120.29 62.6098 112.38 64.8798C110.18 65.5198 107.59 65.7598 105.46 64.7598Z" fill="#A29720"/>
<path opacity="0.75" d="M105.46 64.7598C105.15 64.6098 104.89 64.4498 104.65 64.2898C110.46 66.4298 116.69 63.0098 121.15 59.2698C123.63 57.1898 125.77 55.3798 127.41 52.5498C127.95 51.6298 128.48 50.7098 129.02 49.7898C129.06 49.7198 129.11 49.6398 129.12 49.5498C129.15 49.3398 128.94 49.1498 128.73 49.1098C128.52 49.0698 128.3 49.1398 128.1 49.2098C128.32 49.0598 128.55 48.8998 128.68 48.6698C128.81 48.4398 128.81 48.1098 128.6 47.9398C128.44 47.8098 128.22 47.8098 128.02 47.8098C127.33 47.8198 126.64 47.8198 125.95 47.8298C126.75 47.4998 127.55 47.1698 128.35 46.8398C128.11 46.6098 128.15 46.2198 128.15 45.8898C128.15 45.5498 128 45.1298 127.67 45.1198C127.97 45.0098 128.26 44.8998 128.56 44.7898C128.42 44.4598 128.27 44.1598 128.24 43.8098C128.34 43.8498 129.31 44.2898 129.36 44.2098C128.87 44.8998 128.61 45.7798 128.59 46.6098C128.56 47.9998 129.53 49.5598 131.04 49.4398C125.96 55.9998 120.26 62.6198 112.35 64.8898C110.18 65.5198 107.59 65.7598 105.46 64.7598Z" fill="#8A720B"/>
<path opacity="0.42" d="M130.95 45.7099C131.09 45.7099 131.23 45.7099 131.35 45.7699C131.47 45.8199 131.58 45.9499 131.57 46.0799C131.57 46.1599 131.53 46.2299 131.49 46.2899C131.16 46.8399 130.76 47.3499 130.3 47.7899C130.06 48.0199 129.73 48.2399 129.43 48.1099C129.19 48.0099 129.09 47.7199 129.05 47.4599C129 47.1999 129 46.9199 129 46.6499C129 46.1099 129 45.3099 129.5 44.9399C130.17 44.4499 130.98 44.8999 130.95 45.7099Z" fill="#FFF69E"/>
<path d="M130.35 45.26C130.46 45.24 130.62 45.25 130.64 45.36C130.66 45.44 130.58 45.52 130.59 45.6C130.6 45.72 130.78 45.78 130.79 45.9C130.8 45.96 130.75 46.02 130.71 46.07C130.42 46.42 130.11 46.75 129.78 47.07C129.62 47.23 129.38 47.38 129.2 47.25C129.12 47.19 129.08 47.08 129.06 46.97C128.89 45.98 129.41 45.42 130.35 45.26Z" fill="#FBEF95"/>
<path opacity="0.34" d="M107.28 52.7298C108.28 51.3098 109.55 50.0498 111.13 49.3198C109.28 51.0498 107.69 53.0498 106.38 55.2098C106.21 55.4998 106.04 55.7798 105.88 56.0698C105.74 56.3298 105.52 56.5398 105.39 56.7898C104.97 57.6198 104.64 58.4898 104.4 59.3898C104.35 59.5798 104.3 59.7698 104.19 59.9198C104.28 59.7898 104.22 59.2398 104.25 59.0598C104.3 58.7298 104.38 58.3998 104.48 58.0798C104.68 57.4898 105.05 56.9998 105.28 56.4398C105.81 55.1498 106.47 53.8898 107.28 52.7298Z" fill="#BFB939"/>
<path opacity="0.34" d="M111.25 46.35C112.56 45.22 114.11 44.31 115.81 43.98C113.6 45.21 111.57 46.75 109.77 48.53C109.53 48.77 109.3 49 109.07 49.25C108.87 49.46 108.6 49.61 108.42 49.82C107.81 50.52 107.28 51.29 106.82 52.1C106.73 52.27 106.63 52.44 106.49 52.56C106.61 52.46 106.69 51.91 106.75 51.74C106.88 51.43 107.03 51.13 107.21 50.85C107.55 50.33 108.03 49.95 108.39 49.45C109.24 48.33 110.18 47.27 111.25 46.35Z" fill="#BFB939"/>
<path opacity="0.34" d="M106.17 57.3399C106.97 56.3199 107.98 55.4199 109.19 54.9199C107.74 56.1499 106.46 57.5799 105.4 59.1499C105.27 59.3499 105.13 59.5599 105 59.7699C104.88 59.9599 104.71 60.1099 104.61 60.2899C104.27 60.8899 103.99 61.5299 103.78 62.1799C103.74 62.3199 103.69 62.4499 103.6 62.5699C103.67 62.4799 103.64 62.0699 103.67 61.9399C103.72 61.6999 103.79 61.4599 103.88 61.2299C104.05 60.7999 104.35 60.4499 104.54 60.0399C104.98 59.0799 105.52 58.1699 106.17 57.3399Z" fill="#BFB939"/>
<path opacity="0.34" d="M119.91 56.3499C119 57.3999 117.88 58.3099 116.56 58.7699C118.18 57.5299 119.62 56.0599 120.84 54.4399C121 54.2299 121.16 54.0099 121.31 53.7899C121.44 53.5899 121.64 53.4399 121.76 53.2599C122.16 52.6299 122.49 51.9599 122.76 51.2699C122.81 51.1299 122.87 50.9799 122.97 50.8599C122.88 50.9599 122.89 51.3999 122.86 51.5399C122.8 51.7999 122.71 52.0499 122.6 52.2999C122.4 52.7599 122.06 53.1099 121.83 53.5499C121.28 54.5399 120.65 55.4899 119.91 56.3499Z" fill="#BFB939"/>
</g>
<g clip-path="url(#clip2_1902_337)" filter="url(#filter0_f_1902_337)">
<path d="M164.043 112.194C162.165 112.172 160.339 112.199 158.46 112.092C157.003 112.01 155.713 112.718 154.277 112.555C152.423 112.342 152.583 111.33 152.246 109.494C151.836 107.29 151.541 105.081 151.134 102.891C150.587 99.9427 150.709 96.7552 151.506 93.858C153.073 88.1546 156.335 83.1871 160.556 79.063C168.443 71.3652 180.325 66.7123 191.285 66.1633C193.718 66.0369 197.224 65.7219 199.254 64.2017C200.688 63.131 202.279 60.5825 202.221 63.802C202.182 65.7043 201.184 67.0931 200.56 68.7681C199.932 70.4652 199.937 72.2879 199.839 74.1C199.76 75.8155 199.507 77.5185 199.317 79.2175C198.139 90.2731 189.119 98.8739 180.641 105.046C175.665 108.678 170.414 112.251 164.043 112.194Z" fill="#78AF02"/>
<path opacity="0.42" d="M151.497 105.074C151.384 104.347 151.262 103.615 151.129 102.899C150.582 99.9509 150.703 96.7634 151.5 93.8662C153.067 88.1628 156.329 83.1952 160.551 79.0712C168.443 71.3652 180.325 66.7123 191.285 66.1632C193.718 66.0369 197.224 65.7219 199.254 64.2017C200.688 63.131 202.279 60.5825 202.221 63.802C202.195 65.2496 201.602 66.4093 201.053 67.6116C199.007 69.6945 196.292 70.7104 193.964 72.6204C193.011 73.4054 192.168 74.243 191.136 74.9486C190.879 75.123 187.773 76.5237 187.824 76.364C188.524 74.3024 189.912 72.9309 191.51 71.5228C192.883 70.3119 195.561 68.6349 195.946 66.7435C192.058 64.9217 188.711 70.7945 186.429 72.761C187.193 70.8174 189.086 69.5798 189.987 67.7199C188.859 68.3705 187.11 67.8165 185.798 68.399C184.461 69.0004 183.685 70.0199 183.195 71.3984C182.407 73.5689 181.754 75.6149 181.438 77.7742C181.101 80.0662 181.873 82.5367 180.32 84.5257C178.683 83.0116 180.049 78.7794 180.485 77.0085C180.73 75.9961 183.139 68.3426 183.481 68.4116C176.989 67.1339 174.332 76.5183 174.337 81.0405C174.344 82.547 174.494 84.057 174.551 85.5619C174.58 86.3394 174.097 88.9803 174.455 89.5491C171.736 85.2744 172.56 79.2207 174.204 74.7315C174.581 73.6888 175.079 72.6462 175.123 71.5903C170.344 69.5591 169.153 76.467 168.9 79.4767C168.695 81.9465 167.985 84.4767 168.135 86.9632C168.24 88.7467 169.25 90.4071 169.487 92.1604C167.874 90.1753 167.323 87.0414 167.206 84.5418C167.074 81.5425 168.578 78.4205 168.07 75.4513C165.995 74.7177 163.034 79.1874 162.322 80.6911C160.939 83.6051 161.139 87.6407 161.126 90.7948C161.124 92.5758 161.935 94.2925 162.521 95.9485C162.867 96.9359 163.059 99.9033 163.628 100.571C162.332 99.0402 161.667 96.6444 161.226 94.7116C160.945 93.476 160.682 92.2298 160.54 90.9697C160.422 89.849 160.848 88.2304 160.566 87.2029C159.783 84.3827 157.759 86.1388 157.313 88.0121C156.348 92.1593 156.345 96.0654 157.148 100.182C156.752 98.1334 155.823 96.4804 155.726 94.1783C155.638 91.882 156.449 89.7148 155.971 87.3649C153.371 87.5207 152.706 96.3967 152.55 98.2047C152.374 100.303 152.695 102.336 153.346 104.318C153.693 105.356 154.88 107.164 155.179 108.497C155.259 108.871 155.274 109.199 155.176 109.46C155.078 109.721 152.154 106.28 151.926 105.839C151.787 105.583 151.641 105.322 151.497 105.074Z" fill="#A3CE24"/>
<path opacity="0.42" d="M151.5 93.8662C153.067 88.1628 156.329 83.1952 160.551 79.0712C168.443 71.3652 180.325 66.7123 191.285 66.1632C193.718 66.0368 197.224 65.7218 199.254 64.2017C200.688 63.131 202.279 60.5824 202.221 63.802C202.189 65.6239 201.27 66.9702 200.651 68.551C199.606 69.9193 198.434 71.0516 196.722 71.647C196.594 71.6912 196.451 71.7378 196.314 71.7762C193.37 72.6314 194.06 70.4281 193.333 68.6245C192.193 65.7738 189.493 69.0344 188.545 70.6657C187.764 72.0236 187.659 74.7344 186.223 75.511C184.62 73.3735 186.569 70.5753 187.244 68.3744C182.848 67.6255 181.773 74.6998 181.948 77.8998C182.144 81.7495 180.016 79.0006 179.324 76.9398C178.875 75.6116 178.768 74.4744 178.845 73.0752C178.899 72.075 179.302 70.6112 178.992 69.7467C177.047 71.9125 175.736 74.2179 174.968 77.1961C174.557 78.7402 174.094 80.8822 174.047 82.5345C174.01 83.9985 174.706 85.6709 173.935 86.9985C172.166 86.6992 171.647 82.1956 171.577 80.7791C171.402 77.371 172.045 74.867 172.999 71.6767C171.656 71.7119 170.14 73.5437 169.43 74.6091C168.409 76.1527 168.418 78.1254 168.144 79.9112C167.815 82.0009 167.469 84.2011 167.681 86.3034C167.812 87.5798 169.293 90.6078 168.695 91.6175C166.99 90.9481 165.773 87.8236 165.156 86.2307C164.054 83.3947 164.226 79.9253 165.338 77.1021C164.197 77.1448 162.697 79.8065 162.176 80.7597C159.509 85.6801 160.715 91.3122 162.413 96.4342C162.827 97.6895 163.786 99.1434 161.689 98.4426C160.544 98.0552 159.833 96.9956 159.365 95.886C157.917 92.5509 158.93 88.7544 158.58 85.2978C157.836 86.9867 156.936 89.0547 156.79 90.9184C155.682 94.0496 157.612 97.7955 156.571 100.779C155.055 98.9344 154.688 96.723 154.851 94.3826C154.953 92.8425 156.079 90.8352 155.684 89.3251C155.29 87.779 154.413 88.0554 153.612 89.3018C152.251 91.4007 152.914 94.515 152.479 96.8602C152.285 97.921 152.586 98.3636 151.255 97.9442C151.126 97.9023 150.992 97.8326 150.869 97.7465C150.947 96.4333 151.155 95.1259 151.5 93.8662Z" fill="#A3CE24"/>
<path opacity="0.42" d="M156.873 90.6955C156.843 90.7725 156.828 90.8471 156.798 90.9241C156.8 90.974 156.782 91.0347 156.783 91.0846C156.839 90.9528 156.867 90.8258 156.873 90.6955Z" fill="#A3CE24"/>
<path d="M151.129 102.899C150.582 99.951 150.703 96.7634 151.5 93.8662C151.634 93.3617 151.812 92.8637 151.97 92.3763C151.84 92.9808 151.721 93.569 151.661 94.0892C151.34 96.7949 151.395 100.863 153.056 103.163C153.443 103.691 153.925 104.101 154.492 104.389C156.445 105.367 157.058 102.646 157.158 101.3C157.304 99.1061 156.519 96.8462 156.211 94.689C155.845 92.0755 156.292 87.6388 158.022 84.8216C156.438 89.2429 155.583 99.976 161.128 101.298C161.391 101.36 161.714 101.281 161.807 100.992C162.614 98.1507 161.404 95.5563 161.054 92.7101C160.712 89.9917 161.45 82.266 162.002 81.0776C161.541 85.2726 162.02 90.4078 163.93 93.7981C165.084 95.828 167.568 94.3573 168.168 92.6651C169.008 90.3349 167.742 87.7503 167.857 85.3033C167.977 82.518 168.23 79.7884 168.784 77.0632C168.923 76.3423 169.211 75.6527 169.466 74.9401C169.944 73.6141 170.602 72.2922 171.937 71.6769C170.158 73.6052 169.895 76.315 169.674 78.7734C169.442 81.4563 169.202 84.1334 170.697 86.5485C171.21 87.3845 172.721 89.9331 174.051 89.0459C175.214 88.274 174.738 84.7895 174.652 83.6057C174.44 81.0152 174.815 78.7379 175.232 76.2092C175.604 73.9541 176.348 72.2652 177.968 70.5802C176.332 73.5244 175.944 76.8666 176.238 80.1749C176.379 81.7511 177.377 85.2589 179.711 83.793C181.659 82.5816 181.031 79.2961 181.016 77.4176C180.973 74.6036 182.573 71.5725 183.882 69.1811C183.649 70.7514 182.91 72.224 182.892 73.8354C182.889 74.6759 182.857 76.4119 183.299 77.088C184.287 78.5869 184.783 76.8341 185.109 75.9511C186.025 73.4424 187.249 71.504 188.936 69.4626C190.309 67.7995 191.945 66.8944 193.977 66.2427C191.75 67.0508 190.731 68.8885 189.514 70.7467C188.622 72.1241 187.263 73.8707 188.249 75.5999C188.468 75.985 188.899 76.0672 188.995 76.4523C189.173 77.1389 188.572 77.7186 188.216 78.2263C187.883 78.7013 187.749 79.2058 187.455 79.6956C186.702 80.9264 185.161 80.86 184.017 81.4992C182.777 82.2054 181.818 83.3649 180.807 84.354C179.538 85.5894 178.253 86.8134 176.982 88.035C174.482 90.4347 171.951 92.8254 169.454 95.2391C166.1 98.4567 162.697 101.604 159.173 104.629C156.684 106.768 155.3 108.289 154.391 111.364C154.304 111.645 154.197 112.059 154.05 112.53C152.481 112.26 152.585 111.258 152.264 109.52C151.831 107.299 151.535 105.089 151.129 102.899Z" fill="#6D9E02"/>
<path d="M157.103 104.045C158.551 102.031 160.269 100.207 161.867 98.3108C165.39 94.1372 168.97 89.5877 173.239 86.1445C177.627 82.6014 181.888 79.0664 186.534 75.8512C190.888 72.8455 195.891 69.6968 199.431 65.7788C200.183 64.9502 200.863 63.7177 201.325 62.7103C201.378 62.6005 201.42 62.4711 201.459 62.3278C201.942 62.0921 202.249 62.3684 202.223 63.8159C202.184 65.7182 201.187 67.107 200.562 68.782C199.935 70.4791 199.939 72.3019 199.841 74.1139C199.763 75.8294 199.509 77.5324 199.32 79.2314C198.141 90.2871 189.121 98.8878 180.644 105.06C175.66 108.686 170.408 112.259 164.043 112.194C162.165 112.172 160.339 112.199 158.46 112.092C157.003 112.01 155.713 112.718 154.277 112.554C153.508 112.467 153.094 112.238 152.842 111.866C153.905 109.131 155.262 106.602 157.103 104.045Z" fill="#61A304"/>
<path opacity="0.6" d="M199.429 65.765C200.18 64.9363 200.861 63.7038 201.323 62.6964C201.375 62.5866 201.417 62.4572 201.456 62.3139C201.939 62.0782 202.246 62.3545 202.221 63.8021C202.223 63.938 202.203 64.0708 202.189 64.1953C202.102 64.1461 202.003 64.1132 201.889 64.1189C201.319 64.1472 200.76 65.1718 200.467 65.5894C199.971 66.2797 199.37 66.7373 198.73 67.2662C196.484 69.1475 194.06 70.7583 191.808 72.6478C190.631 73.6302 186.056 75.9066 185.904 77.5344C185.776 79.0073 187.479 78.2841 188.597 77.9439C189.885 77.5522 190.584 76.8334 191.73 76.2442C192.962 75.6182 194.319 75.2503 195.464 74.4531C196.832 73.4945 197.844 72.4334 199.044 71.3322C198.338 73.2799 195.484 74.7726 193.8 75.8513C191.426 77.3746 189.027 78.5143 186.333 79.2394C184.142 79.8403 182.306 80.2636 180.613 81.8609C180.329 82.1262 179.584 82.5444 179.832 82.9746C180.179 83.5598 181.486 83.1935 182.037 83.2618C183.151 83.4321 184.166 83.6915 185.327 83.7241C187.362 83.7827 189.441 83.5176 191.473 83.4402C193.234 83.3675 195.246 82.8484 196.782 81.9465C193.202 84.0409 189.7 85.1161 185.504 84.813C184.158 84.7123 182.754 84.8516 181.418 84.6845C180.052 84.5084 178.654 84.3593 177.366 84.9951C176.165 85.594 175.096 86.701 174.07 87.6065C172.652 88.8468 173.257 89.4296 174.873 89.8418C177.633 90.5553 180.446 90.2186 183.189 90.7126C185.695 91.1622 188.556 90.2856 191.054 89.9971C193.09 89.7754 194.849 89.1645 196.461 88.3282C196.429 88.3912 196.397 88.4543 196.365 88.5173C196.328 88.5886 196.29 88.6598 196.238 88.7335C193.056 91.4614 188.57 91.7119 184.442 92.2871C183.998 92.2934 183.546 92.2939 183.094 92.2945C180.357 92.2445 177.577 92.152 174.834 92.3183C172.923 92.4319 170.909 92.2046 169.708 93.9882C169.265 94.6548 168.783 95.6729 169.389 96.3417C169.673 96.6507 170.287 96.8731 170.669 97.0068C174.249 98.2583 178.292 97.892 182.017 98.0481C184.353 98.147 186.722 98.1467 189.074 97.9629C189.056 97.9875 189.031 98.0063 189.006 98.0252C189 98.0334 188.994 98.0415 188.98 98.044C186.646 99.5099 183.803 99.4714 181.14 99.5952C179.765 99.6574 178.274 99.8335 176.895 99.7098C175.627 99.6026 174.369 99.5511 173.103 99.4578C171.234 99.3199 169.494 99.1018 167.623 99.158C165.172 99.223 161.251 99.9555 160.826 102.967C160.547 104.933 164.053 105.924 165.409 106.411C168.499 107.526 172.36 107.314 175.615 107.165C176.348 107.129 177.079 107.08 177.807 107.016C177.486 107.231 177.159 107.453 176.843 107.66C176.071 108.169 174.56 108.147 173.648 108.351C172.376 108.632 170.966 108.205 169.649 108.149C167.066 108.037 163.81 107.891 161.406 106.878C160.359 106.438 156.719 105.254 157.251 107.702C157.8 110.212 161.337 111.629 163.811 112.141C162.013 112.127 160.243 112.144 158.431 112.047C156.974 111.965 155.684 112.673 154.248 112.509C153.479 112.422 153.065 112.193 152.813 111.821C153.754 109.416 154.932 107.177 156.441 104.937C158.038 102.832 159.701 100.774 161.407 98.7579C161.549 98.5892 161.692 98.4205 161.835 98.2519C162.031 98.0234 162.22 97.7892 162.417 97.5608C163.067 96.8075 163.715 96.0402 164.373 95.2926C166.756 92.5545 169.168 89.6534 171.896 87.2063C172.324 86.8223 172.76 86.4441 173.207 86.0855C177.595 82.5424 181.856 79.0075 186.503 75.7922C189.012 74.0585 191.799 72.3119 194.31 70.2981C196.187 68.9269 197.939 67.4198 199.429 65.765Z" fill="#468E02"/>
<path opacity="0.31" d="M159.715 108.245C160.714 107.309 165.044 108.622 166.227 108.816C170.845 109.598 174.7 109.394 178.259 105.953C179.338 104.902 180.025 103.991 178.343 103.289C176.236 102.41 171.365 102.966 169.12 103.138C168.036 103.221 161.933 104.036 163.227 101.475C163.919 100.104 167.61 100.309 168.861 100.197C171.76 99.9453 174.551 99.8494 177.474 100.262C179.263 100.514 182.325 101.598 184.056 100.992C186.188 100.251 189.049 95.3324 185.149 95.2859C182.357 95.2458 179.616 95.34 176.821 95.1639C175.871 95.1084 170.006 95.1132 171.152 93.6696C171.938 92.6698 175.464 92.9184 176.646 92.7823C179.667 92.4449 182.965 92.1306 185.997 92.265C187.892 92.3481 190.996 92.7284 191.928 90.4752C192.634 88.7716 191.013 88.4176 189.749 88.1662C186.573 87.5401 181.879 88.9398 179.04 87.0843C176.767 85.5887 179.816 85.3324 181.275 85.1333C183.356 84.8462 185.459 84.8785 187.56 84.8249C189.273 84.7677 194.031 84.8786 193.788 82.107C192.178 81.7726 187.226 83.3329 186.46 81.0623C186.009 79.7202 189.182 79.636 189.94 79.3734C192.244 78.5949 197.058 76.4128 197.512 73.7268C195.003 72.2368 192.299 77.2784 189.688 76.0218C190.544 74.0332 192.428 72.826 194.059 71.5268C195.552 70.3381 197.045 68.6612 198.28 66.9505C198.678 66.5575 199.061 66.167 199.434 65.7568C200.186 64.9282 200.867 63.6956 201.328 62.6882C201.381 62.5785 201.423 62.4491 201.462 62.3057C201.945 62.0701 202.252 62.3463 202.227 63.7939C202.188 65.6961 201.19 67.085 200.566 68.7599C199.938 70.457 199.942 72.2798 199.845 74.0919C199.766 75.8073 199.513 77.5103 199.323 79.2093C198.144 90.265 189.125 98.8658 180.647 105.038C176.459 108.086 172.083 111.089 167.012 111.93C166.361 111.779 165.83 111.334 165.571 110.31C164.445 110.888 158.127 109.745 159.715 108.245Z" fill="#A3CE24"/>
<path d="M194.63 70.1196C194.788 69.9985 194.947 69.8773 195.097 69.7504C193.554 71.7951 190.547 73.6809 188.609 75.156C187.008 76.3782 184.037 77.4464 182.842 79.0637C184.592 79.4235 187.442 78.3192 189.085 77.578C187.34 79.0049 185.249 79.6025 183.097 80.146C181.085 80.6651 178.83 81.234 177.932 83.3159C179.39 84.7037 182.218 83.9263 184.014 84.3787C181.264 85.1136 177.276 84.4436 176.198 84.7625C174.662 85.2122 171.17 89.4448 170.735 91.0936C171.672 91.3596 172.883 90.8163 173.886 90.762C174.917 90.7028 175.967 90.8771 176.983 90.7343C174.768 91.6121 172.789 91.6298 170.521 92.079C168.126 92.5503 166.357 94.5343 164.933 96.3571C167.641 98.6091 171.981 97.2787 174.904 98.8755C173.244 99.7273 170.517 98.8787 168.733 98.776C166.827 98.6733 164.94 98.56 163.107 99.3634C161.694 99.9852 159.878 101.252 159.938 102.979C159.99 104.787 162.709 106.448 164.193 107.048C162.061 106.971 159.491 104.436 157.346 105.51C155.637 106.364 155.417 108.053 156.315 109.647C157.127 111.084 158.637 111.544 160.072 112.11C159.531 112.097 158.985 112.093 158.433 112.06C156.976 111.979 155.686 112.687 154.25 112.523C153.481 112.436 153.067 112.207 152.815 111.835C153.449 110.216 154.204 108.669 155.072 107.152C158.243 103.342 161.143 99.2566 164.271 95.3679C167.031 92.0754 169.915 88.7608 173.218 86.1051C177.606 82.562 181.866 79.0271 186.513 75.8118C189.003 74.0888 191.699 72.3151 194.225 70.3848C194.379 70.3218 194.511 70.2195 194.63 70.1196Z" fill="#4A8209"/>
<path opacity="0.24" d="M166.517 75.9256C164.541 77.0198 162.676 78.3385 160.993 80.0776C156.124 85.0909 150.785 96.0884 155.129 102.906C157.454 101.959 159.111 95.8663 160.42 93.7191C163.777 88.2322 168.763 83.8014 173.836 79.9081C178.644 76.2194 187.223 74.4164 189.449 68.1735C186.475 66.004 182.169 68.9082 179.559 70.1929C175.179 72.3129 170.617 73.6465 166.517 75.9256Z" fill="#CCEA86"/>
<path opacity="0.2" d="M190.698 91.8114C190.696 91.6755 190.712 91.5649 190.729 91.4543C190.718 91.4346 190.716 91.4207 190.705 91.401C190.674 91.5501 190.668 91.6804 190.698 91.8114Z" fill="#CCEA86"/>
<path opacity="0.2" d="M187.14 97.6209C187.609 96.6553 187.539 95.605 188.594 94.9527C189.262 94.541 190.125 94.7553 190.679 94.0691C191.25 93.3584 191.143 92.1352 190.729 91.4542C190.929 90.5072 192.014 90.5964 192.602 89.8971C193.072 89.3476 193.095 88.3744 193.52 87.7684C194.463 86.4394 196.574 86.2333 197.378 84.9287C198.229 83.5226 196.999 82.0375 197.137 80.7423C197.264 79.5856 198.395 79.035 198.615 77.9193C198.886 76.5579 197.684 75.8502 197.88 74.7173C198.179 72.9488 198.942 71.5295 198.976 69.6854C198.997 68.5762 198.811 67.6397 198.505 66.7171C198.823 66.4027 199.141 66.0883 199.434 65.7566C200.186 64.928 200.867 63.6955 201.328 62.6881C201.381 62.5783 201.423 62.4489 201.462 62.3056C201.945 62.0699 202.252 62.3462 202.227 63.7937C202.188 65.696 201.19 67.0848 200.566 68.7598C199.938 70.4569 199.942 72.2797 199.845 74.0917C199.766 75.8072 199.513 77.5102 199.323 79.2092C198.144 90.2649 189.125 98.8656 180.647 105.038C180.387 105.234 180.125 105.417 179.857 105.607C181.771 104.043 183.424 102.173 185.035 100.31C185.79 99.4593 186.656 98.625 187.14 97.6209Z" fill="#CCEA86"/>
<path opacity="0.25" d="M165.322 78.3613C164.372 79.1603 163.701 80.0824 162.816 80.9273C161.893 81.8075 160.48 81.9771 159.729 83.0138C159.124 83.8597 159.081 85.1237 158.751 86.0648C158.273 87.3909 157.524 88.5996 157.035 89.9421C156.564 91.2239 156.104 92.4893 155.768 93.8048C155.582 94.5412 154.82 95.9245 154.87 96.6552C154.911 97.2582 154.956 97.595 155.769 97.6888C157.421 97.8938 158.358 95.5464 158.764 94.4267C159.515 92.3275 159.537 89.9616 160.903 88.1346C161.988 86.6729 163.579 85.6752 165.066 84.7028C167.1 83.3687 169.252 81.9707 171.206 80.507C173.047 79.1351 174.004 77.3513 176.116 76.2548C177.071 75.7638 177.649 75.2169 178.447 74.689C179.34 74.0939 188.869 70.3072 187.517 69.0301C186.413 67.9751 181.18 70.9991 179.909 71.4882C177.106 72.577 174.336 74.177 171.434 74.9028C169.068 75.4913 167.181 76.8067 165.322 78.3613Z" fill="#CCEA86"/>
</g>
<defs>
<filter id="filter0_f_1902_337" x="138" y="44" width="76.7069" height="84.8445" filterUnits="userSpaceOnUse" color-interpolation-filters="sRGB">
<feFlood flood-opacity="0" result="BackgroundImageFix"/>
<feBlend mode="normal" in="SourceGraphic" in2="BackgroundImageFix" result="shape"/>
<feGaussianBlur stdDeviation="2" result="effect1_foregroundBlur_1902_337"/>
</filter>
<clipPath id="clip0_1902_337">
<rect width="53" height="44" fill="white" transform="translate(37 65)"/>
</clipPath>
<clipPath id="clip1_1902_337">
<rect width="30.18" height="23.44" fill="white" transform="translate(103 42)"/>
</clipPath>
<clipPath id="clip2_1902_337">
<rect width="68.86" height="35.64" fill="white" transform="translate(142 104.389) rotate(-54.9747)"/>
</clipPath>
</defs>
</svg>
