<svg width="187" height="104" viewBox="0 0 187 104" fill="none" xmlns="http://www.w3.org/2000/svg">
<path d="M192.162 134.234C190.719 138.026 189.412 141.749 187.794 145.478C186.543 148.373 187.017 151.517 185.615 154.307C183.803 157.908 181.87 156.831 177.895 156.146C173.12 155.334 168.419 154.286 163.674 153.478C157.288 152.391 150.914 149.769 145.633 145.993C135.234 138.565 127.591 128.247 122.373 116.613C112.639 94.8822 112.058 67.3168 119.113 44.6804C120.67 39.6517 122.644 32.3073 121.074 27.0573C119.971 23.3505 115.988 18.225 122.474 20.7429C126.303 22.2392 128.376 25.2978 131.307 27.8124C134.281 30.3502 137.982 31.6992 141.584 33.2478C145.004 34.6861 148.269 36.4691 151.573 38.1194C173.116 48.7492 183.836 73.4515 190.036 95.2444C193.693 108.042 197.025 121.355 192.162 134.234Z" fill="#78AF02"/>
<path opacity="0.42" d="M168.372 154.37C166.813 154.059 165.237 153.759 163.686 153.496C157.299 152.408 150.925 149.787 145.644 146.011C135.245 138.582 127.602 128.265 122.384 116.63C112.638 94.8818 112.057 67.3164 119.112 44.68C120.669 39.6512 122.643 32.3068 121.073 27.0568C119.97 23.3501 115.987 18.2246 122.473 20.7424C125.39 21.8728 127.3 23.9396 129.329 25.9502C132.028 31.6519 132.065 37.9146 134.204 44.0586C135.085 46.5769 136.156 48.9117 136.817 51.5301C136.98 52.1803 137.505 59.5243 137.219 59.3021C133.56 56.346 131.814 52.5079 130.149 48.2187C128.717 44.5303 127.311 37.8506 123.762 35.6596C117.17 42.1882 126.586 53.3521 128.873 59.4454C125.501 56.4478 124.402 51.6862 121.301 48.4736C121.78 51.2454 119.353 54.379 119.557 57.4737C119.78 60.6341 121.269 62.9668 123.7 64.9876C127.514 68.2044 131.177 71.0524 135.32 73.3039C139.718 75.6943 145.303 75.9699 148.18 80.6013C143.889 82.794 136.324 76.8687 133.057 74.6662C131.187 73.4137 117.461 62.8246 117.856 62.1816C110.426 74.3964 127.477 86.7793 136.653 90.1382C139.713 91.2478 142.887 92.0675 145.982 93.0746C147.58 93.5951 152.576 96.5433 153.996 96.2401C143.301 98.5686 131.637 92.3868 123.759 85.7064C121.925 84.1655 120.182 82.3771 118.073 81.5008C110.392 89.6808 123.514 97.2428 129.429 99.9994C134.286 102.255 138.887 105.582 144.042 107.131C147.737 108.246 151.857 107.436 155.589 108.262C150.361 110.054 143.595 108.836 138.439 107.209C132.258 105.243 127.047 99.8657 120.647 98.6828C117.613 102.344 124.47 111.681 126.989 114.245C131.868 119.222 140.202 121.824 146.589 124.2C150.199 125.532 154.286 125.166 158.08 125.212C160.341 125.246 166.501 127.069 168.281 126.412C164.21 127.899 158.855 127.463 154.607 126.916C151.891 126.567 149.168 126.17 146.507 125.52C144.146 124.924 141.181 122.854 138.887 122.658C132.584 122.145 134.637 127.559 138.104 129.86C145.795 134.908 153.715 137.823 162.661 139.263C158.212 138.54 154.167 139.193 149.427 137.672C144.704 136.139 140.913 132.88 135.791 132.098C134.169 137.488 151.675 145.451 155.225 147.114C159.35 149.036 163.712 149.899 168.216 150.058C170.579 150.126 175.132 149.067 178.058 149.454C178.876 149.57 179.551 149.785 180.008 150.177C180.465 150.57 171.306 153.936 170.242 154.07C169.62 154.16 168.981 154.262 168.372 154.37Z" fill="#A3CE24"/>
<path opacity="0.42" d="M145.644 146.011C135.245 138.582 127.602 128.265 122.384 116.63C112.638 94.8818 112.057 67.3164 119.112 44.68C120.669 39.6512 122.643 32.3069 121.073 27.0568C119.97 23.3501 115.987 18.2246 122.473 20.7425C126.145 22.1639 128.19 25.0313 130.934 27.4656C132.931 30.6036 134.354 33.8247 134.285 37.7398C134.279 38.0336 134.267 38.3575 134.243 38.6636C133.784 45.2715 129.829 42.2313 125.63 42.3604C118.999 42.5485 123.599 50.455 126.201 53.5934C128.373 56.1886 133.792 58.4213 134.297 61.9119C128.767 63.5711 124.545 57.5332 120.585 54.523C115.789 62.8809 129.335 70.3329 135.955 72.3626C143.909 74.8341 136.748 77.1002 132.053 76.9692C129.024 76.8899 126.639 76.2587 123.859 75.0598C121.87 74.2052 119.202 72.2969 117.218 72.2813C120.16 77.8404 123.859 82.2162 129.326 85.9944C132.152 87.9776 136.15 90.5135 139.467 91.84C142.408 93.0058 146.319 92.8403 148.436 95.3946C146.511 98.7583 136.99 96.455 134.066 95.5405C127.023 93.3571 122.425 90.1854 116.665 85.8735C115.736 88.6245 118.321 93.0638 119.952 95.2978C122.322 98.5186 126.33 99.9695 129.747 101.857C133.74 104.082 137.944 106.422 142.366 107.559C145.052 108.244 152.296 107.499 153.898 109.464C151.27 112.422 144.027 112.562 140.336 112.627C133.763 112.748 126.856 109.813 121.959 105.454C121.195 107.8 125.475 112.824 127.02 114.593C135.011 123.668 147.332 125.42 158.985 125.794C161.84 125.889 165.503 125.027 162.518 128.759C160.879 130.792 158.201 131.443 155.602 131.565C147.759 132.017 140.814 127.134 133.544 125.267C136.414 128.034 139.937 131.401 143.608 133.086C149.133 137.666 158.168 136.545 163.442 140.878C158.572 142.578 153.813 141.675 149.188 139.601C146.141 138.245 142.91 134.466 139.553 134.141C136.124 133.788 136.03 135.774 137.962 138.326C141.204 142.65 148.013 143.627 152.446 146.257C154.452 147.441 155.574 147.161 153.732 149.547C153.551 149.778 153.309 149.998 153.043 150.183C150.438 149.047 147.941 147.651 145.644 146.011Z" fill="#A3CE24"/>
<path d="M163.686 153.496C157.299 152.408 150.925 149.787 145.644 146.011C144.721 145.363 143.843 144.631 142.973 143.947C144.102 144.662 145.206 145.342 146.216 145.85C151.464 148.517 159.756 151.438 165.658 149.783C167.017 149.392 168.208 148.721 169.215 147.785C172.653 144.554 167.591 141.283 164.937 140.076C160.596 138.146 155.428 138.054 150.824 137.07C145.25 135.865 136.586 131.651 132.162 126.043C139.948 132.551 161.078 142.284 167.892 132.023C168.212 131.538 168.294 130.823 167.777 130.419C162.616 126.665 156.452 127.186 150.419 125.774C144.652 124.441 129.534 117.187 127.535 115.182C135.699 119.244 146.471 122.098 154.77 120.751C159.746 119.924 158.615 113.79 155.63 111.312C151.53 107.873 145.345 108.514 140.468 106.457C134.909 104.137 129.562 101.591 124.448 98.4355C123.09 97.6166 121.906 96.5187 120.651 95.4701C118.317 93.5133 116.127 91.1942 115.874 88.0285C118.459 93.0731 123.759 95.6258 128.58 97.9061C133.848 100.376 139.098 102.857 145.11 101.626C147.188 101.209 153.482 100.044 152.674 96.6852C151.976 93.7499 144.555 92.1192 142.089 91.4116C136.678 89.9099 132.339 87.4525 127.522 84.7226C123.225 82.2883 120.355 79.5208 118.145 74.9784C122.897 80.4906 129.385 83.7696 136.314 85.6375C139.616 86.5267 147.473 87.1181 146.239 81.2921C145.234 76.4387 138.103 75.264 134.283 73.8933C128.544 71.8825 123.589 66.3802 119.715 61.9419C122.726 63.5859 125.161 66.182 128.416 67.4197C130.118 68.0521 133.615 69.411 135.315 69.0186C139.092 68.1304 135.907 65.8185 134.359 64.4999C129.954 60.7731 126.935 56.8457 124.052 51.9027C121.703 47.8784 121.086 43.8866 121.279 39.2798C121.258 44.3988 124.225 47.8357 127.087 51.6882C129.215 54.524 131.745 58.5807 135.987 57.8694C136.931 57.7133 137.419 56.9008 138.272 56.9922C139.797 57.1425 140.524 58.7947 141.289 59.8947C142.004 60.9238 142.927 61.5712 143.701 62.5332C145.636 64.9772 144.353 68.0527 144.797 70.8492C145.305 73.8901 146.942 76.6994 148.194 79.4862C149.754 82.9803 151.279 86.4991 152.809 89.9878C155.812 96.8464 158.775 103.76 161.808 110.624C165.834 119.824 169.681 129.07 173.189 138.472C175.673 145.113 177.727 149.053 183.285 153.189C183.79 153.575 184.549 154.099 185.395 154.748C183.678 157.73 181.724 156.773 177.959 156.127C173.132 155.351 168.43 154.303 163.686 153.496Z" fill="#6D9E02"/>
<path d="M170.463 142.234C167.458 137.797 165.039 132.953 162.384 128.3C156.545 118.043 149.986 107.394 146.185 96.1692C142.27 84.6292 138.276 73.3545 135.219 61.5343C132.368 50.4652 129.711 37.9719 124.403 27.8734C123.283 25.7313 121.29 23.4323 119.592 21.745C119.408 21.5567 119.177 21.3754 118.916 21.1887C118.797 20.0342 119.586 19.6173 122.503 20.7477C126.332 22.244 128.405 25.3027 131.337 27.8173C134.31 30.355 138.011 31.704 141.613 33.2527C145.033 34.691 148.298 36.4739 151.602 38.1242C173.145 48.7541 183.866 73.4564 190.065 95.2492C193.705 108.059 197.037 121.372 192.161 134.233C190.718 138.025 189.411 141.748 187.793 145.478C186.542 148.373 187.017 151.516 185.614 154.306C184.864 155.801 184.091 156.47 183.149 156.704C178.393 152.51 174.276 147.873 170.463 142.234Z" fill="#61A304"/>
<path opacity="0.6" d="M124.373 27.8682C123.253 25.7261 121.26 23.4271 119.561 21.7398C119.378 21.5515 119.147 21.3702 118.885 21.1834C118.767 20.029 119.556 19.6121 122.473 20.7425C122.751 20.839 123.005 20.9779 123.247 21.0991C123.082 21.2402 122.942 21.4167 122.868 21.6519C122.501 22.8277 124.162 24.7256 124.791 25.6304C125.822 27.1509 126.301 28.7119 126.897 30.4026C129.038 36.3608 130.499 42.4761 132.652 48.452C133.768 51.5711 134.975 62.5461 138.163 64.0668C141.054 65.4254 140.857 61.4315 141 58.9114C141.165 56.0073 140.229 54.0535 139.888 51.291C139.537 48.325 139.802 45.2991 139.038 42.383C138.114 38.8946 136.716 36.0506 135.377 32.798C138.801 35.6807 139.701 42.5799 140.634 46.7994C141.954 52.7495 142.478 58.4633 141.94 64.4673C141.525 69.3601 141.016 73.3977 142.993 78.0225C143.32 78.7953 143.613 80.6177 144.67 80.4355C146.116 80.1678 146.347 77.2444 146.896 76.1789C148.071 74.0465 149.354 72.1816 150.286 69.8501C151.921 65.7668 152.932 61.3539 154.29 57.1741C155.455 53.5494 155.902 49.0815 155.217 45.2948C156.796 54.1169 156.368 62.0188 152.626 70.3023C151.418 72.9569 150.654 75.9085 149.32 78.4936C147.944 81.1334 146.601 83.8565 146.93 86.9428C147.249 89.8256 148.698 92.8184 149.77 95.5727C151.228 99.3744 152.861 98.5817 154.901 95.6114C158.405 90.545 159.819 84.59 162.865 79.3945C165.644 74.6478 165.999 68.1918 167.275 62.9108C168.343 58.6167 168.415 54.5936 167.92 50.7013C168.024 50.8132 168.128 50.925 168.232 51.0369C168.349 51.1665 168.465 51.2961 168.576 51.4558C171.737 59.9416 168.902 69.2266 166.992 78.0262C166.674 78.9313 166.338 79.8489 166.002 80.7664C163.861 86.2799 161.601 91.8497 159.895 97.5347C158.701 101.496 156.739 105.411 159.461 109.177C160.483 110.571 162.188 112.307 163.996 111.576C164.835 111.231 165.743 110.152 166.299 109.476C171.505 103.148 173.775 94.6772 176.868 87.2393C178.809 82.5747 180.575 77.7696 181.954 72.8642C181.991 72.9174 182.01 72.9829 182.03 73.0485C182.042 73.0662 182.054 73.084 182.049 73.1141C183.282 78.94 181.086 84.6764 179.352 90.1701C178.454 93.0044 177.699 96.1597 176.421 98.8635C175.259 101.355 174.216 103.869 173.084 106.366C171.411 110.055 169.672 113.421 168.392 117.257C166.696 122.277 165.26 130.773 171.05 133.88C174.83 135.911 179.453 129.54 181.451 127.152C186.015 121.718 188.462 113.729 190.586 107.017C191.06 105.503 191.504 103.984 191.918 102.46C192.114 103.271 192.321 104.1 192.505 104.894C192.962 106.839 191.792 109.888 191.525 111.889C191.147 114.678 189.231 117.22 188.137 119.849C185.983 125.003 183.261 131.498 179.415 135.618C177.742 137.413 172.629 143.913 177.989 144.66C183.488 145.417 188.998 139.299 191.881 134.664C190.513 138.299 189.228 141.902 187.68 145.504C186.429 148.399 186.903 151.543 185.501 154.333C184.75 155.828 183.978 156.496 183.036 156.73C178.858 153.029 175.196 148.97 171.778 144.241C168.7 139.434 165.764 134.528 162.947 129.566C162.712 129.151 162.476 128.736 162.24 128.321C161.923 127.751 161.589 127.194 161.272 126.625C160.229 124.745 159.156 122.86 158.13 120.968C154.353 114.094 150.267 107.041 147.338 99.6834C146.878 98.5295 146.436 97.3633 146.042 96.1901C142.127 84.6502 138.133 73.3755 135.075 61.5552C133.43 55.1738 131.965 48.2196 129.751 41.6274C128.369 36.7993 126.619 32.1222 124.373 27.8682Z" fill="#468E02"/>
<path opacity="0.31" d="M180.927 140.066C179.772 137.344 185.663 129.54 186.938 127.286C191.965 118.504 194.424 110.533 190.099 100.751C188.771 97.7795 187.436 95.7076 184.759 98.5943C181.407 102.213 178.902 112.505 177.578 117.187C176.939 119.447 174.043 132.432 169.814 127.898C167.549 125.473 170.716 118.141 171.421 115.52C173.072 109.453 174.957 103.722 177.971 98.1022C179.816 94.6621 184.297 89.2592 184.358 85.2962C184.444 80.4217 176.601 70.9536 173.6 78.8272C171.438 84.4611 169.587 90.0889 167.146 95.6262C166.326 97.5121 161.965 109.41 159.891 106.01C158.449 103.67 161.581 96.7047 162.186 94.2057C163.753 87.8282 165.573 80.9063 168.106 74.8578C169.687 71.0752 172.771 65.0639 168.896 61.4947C165.967 58.7943 164.042 61.8163 162.589 64.1939C158.953 70.1679 158.294 80.7294 152.414 85.1045C147.687 88.6002 149.44 82.2251 150.123 79.1192C151.092 74.6831 152.724 70.4441 154.182 66.1425C155.342 62.6257 159.113 53.059 153.311 51.4869C151.433 54.502 150.907 65.7083 145.732 65.5686C142.673 65.4838 144.867 58.9863 144.9 57.2535C145.038 52.0004 144.2 40.6108 139.091 37.6887C134.199 41.6671 142.409 50.9064 137.915 55.2668C134.52 52.0479 133.476 47.3271 132.057 43.0511C130.758 39.1384 128.47 34.8612 125.921 31.0806C125.421 29.9814 124.915 28.9124 124.361 27.8502C123.24 25.7082 121.248 23.4092 119.549 21.7218C119.366 21.5336 119.134 21.3522 118.873 21.1655C118.755 20.011 119.544 19.5942 122.461 20.7246C126.29 22.2209 128.363 25.2795 131.294 27.7941C134.268 30.3319 137.968 31.6808 141.57 33.2295C144.991 34.6678 148.256 36.4507 151.56 38.101C173.103 48.7309 183.823 73.4332 190.022 95.2261C193.083 105.991 195.911 117.103 193.839 128.015C193.047 129.223 191.749 129.968 189.478 129.73C189.813 132.444 182.785 144.406 180.927 140.066Z" fill="#A3CE24"/>
<path d="M129.628 40.8446C129.501 40.4335 129.373 40.0224 129.227 39.6237C132.224 44.2767 133.808 51.7801 135.355 56.8088C136.64 60.9675 136.592 67.7892 138.982 71.4171C141.016 68.1352 140.901 61.5325 140.622 57.648C142.215 62.2503 141.868 66.938 141.367 71.7066C140.92 76.1745 140.393 81.1714 143.947 84.5431C147.847 82.6216 148.379 76.3061 150.634 73.002C150.075 79.1263 145.745 86.714 145.588 89.1384C145.355 92.5892 151.336 102.825 154.356 104.936C155.594 103.234 155.395 100.373 156.032 98.2986C156.68 96.1643 157.816 94.1645 158.284 91.9977C158.413 97.1438 156.974 101.169 156.195 106.105C155.366 111.312 158.071 116.378 160.707 120.624C167.292 116.811 167.828 107.019 173.245 102.281C173.735 106.282 169.982 111.179 168.444 114.721C166.815 118.51 165.18 122.252 165.443 126.568C165.651 129.897 166.867 134.524 170.414 135.691C174.118 136.932 179.514 132.656 181.838 130.093C180.092 134.359 173.036 137.684 173.615 142.833C174.072 146.936 177.335 148.641 181.237 148.008C184.756 147.431 186.813 144.712 189.031 142.223C188.602 143.31 188.186 144.415 187.71 145.509C186.459 148.405 186.933 151.548 185.531 154.338C184.78 155.833 184.008 156.501 183.066 156.735C180.254 154.242 177.679 151.559 175.25 148.669C169.886 139.399 163.762 130.473 158.207 121.23C153.586 113.18 149.014 104.859 146.09 96.1832C142.174 84.6432 138.181 73.3685 135.123 61.5483C133.484 55.2147 131.897 48.4247 129.864 41.865C129.851 41.5056 129.742 41.1601 129.628 40.8446Z" fill="#4A8209"/>
<path opacity="0.24" d="M120.451 102.187C121.198 107.009 122.482 111.773 124.755 116.482C131.293 130.093 149.618 149.116 166.682 145.388C166.493 139.968 155.372 132.067 151.993 127.811C143.368 116.914 138.098 103.5 133.983 90.3096C130.085 77.8103 132.822 59.0693 121.82 49.902C115.204 54.3153 117.884 65.2138 118.545 71.4644C119.58 81.9272 118.885 92.1717 120.451 102.187Z" fill="#CCEA86"/>
<path opacity="0.2" d="M170.69 64.9842C170.412 64.8877 170.2 64.7719 169.988 64.6562C169.94 64.6631 169.91 64.6577 169.862 64.6646C170.141 64.839 170.401 64.9478 170.69 64.9842Z" fill="#CCEA86"/>
<path opacity="0.2" d="M179.819 76.5313C178.211 74.8602 176.029 74.2191 175.492 71.5923C175.155 69.9326 176.233 68.3415 175.254 66.7061C174.239 65.0176 171.678 64.3239 169.988 64.6562C168.217 63.5457 169.206 61.4108 168.226 59.6976C167.462 58.3338 165.506 57.5625 164.593 56.2495C162.601 53.3452 163.756 48.9116 161.71 46.3079C159.493 43.5338 155.564 44.9223 153.04 43.6765C150.789 42.5572 150.515 39.8534 148.416 38.5754C145.857 37.0125 143.526 38.9216 141.375 37.6805C138.011 35.7557 135.701 33.1511 131.987 31.7065C129.753 30.8387 127.715 30.5185 125.616 30.4511C125.215 29.5718 124.814 28.6925 124.361 27.8502C123.24 25.7082 121.248 23.4092 119.549 21.7218C119.366 21.5336 119.134 21.3522 118.873 21.1655C118.755 20.011 119.544 19.5942 122.461 20.7245C126.29 22.2209 128.363 25.2795 131.294 27.7941C134.268 30.3319 137.968 31.6808 141.57 33.2295C144.991 34.6678 148.256 36.4507 151.56 38.101C173.103 48.7309 183.823 73.4332 190.022 95.226C190.227 95.8994 190.402 96.5673 190.589 97.2529C188.843 92.2041 186.282 87.4587 183.705 82.8035C182.542 80.6383 181.495 78.2611 179.819 76.5313Z" fill="#CCEA86"/>
<path opacity="0.25" d="M124.501 106.424C125.413 108.947 126.783 110.995 127.836 113.42C128.934 115.946 128.225 118.938 129.768 121.234C131.032 123.092 133.563 124.122 135.226 125.492C137.56 127.449 139.452 129.87 141.81 131.862C144.059 133.772 146.283 135.647 148.7 137.309C150.055 138.236 152.292 140.811 153.811 141.256C155.065 141.621 155.781 141.781 156.578 140.201C158.224 137.005 154.162 133.355 152.194 131.697C148.496 128.61 143.714 126.802 141.027 122.671C138.872 119.38 138.034 115.41 137.171 111.669C135.981 106.55 134.75 101.143 133.237 96.0898C131.827 91.3341 128.923 88.0638 128.273 82.9638C127.989 80.6618 127.311 79.0806 126.834 77.0699C126.293 74.8148 125.715 52.6676 122.118 54.4573C119.155 55.911 121.388 68.7781 121.432 71.7201C121.552 78.2149 122.733 85.0248 122.042 91.4513C121.472 96.6888 122.733 101.495 124.501 106.424Z" fill="#CCEA86"/>
<path d="M98.4655 37.6069C97.3343 39.3831 95.4529 40.0959 93.4248 40.4641C91.0909 40.8848 89.6044 40.0445 88.4239 37.9495C86.7211 34.8764 86.0431 30.7806 85.2958 27.354C84.7307 24.7679 84.2988 21.7084 84.3201 19.0941C84.3312 18.0978 83.9777 16.7246 84.4735 15.8025C86.0192 12.8948 94.3165 21.6974 95.4164 22.9004C99.1006 26.941 101.725 32.4967 98.4655 37.6069Z" fill="#757575"/>
<path d="M98.4655 37.607C99.7155 35.64 100.092 33.6045 99.8792 31.6169C99.4992 33.4072 98.7853 34.246 97.4727 35.3856C95.2458 37.2944 92.2009 34.9374 90.9862 32.6524C86.6157 24.4023 85.2368 17.1641 85.32 15.2241C84.9456 15.2631 84.6562 15.4409 84.4637 15.8007C83.9777 16.7247 84.3214 18.0959 84.3103 19.0923C84.289 21.7066 84.719 24.7758 85.286 27.3522C86.0432 30.7807 86.7113 34.8746 88.4141 37.9477C89.5946 40.0427 91.0811 40.883 93.415 40.4623C95.451 40.1058 97.3343 39.3832 98.4655 37.607Z" fill="#575959"/>
<path d="M99.3592 35.7946C96.0232 34.5117 94.1193 31.2159 92.6708 27.9886C92.3675 27.2977 92.0427 26.6128 91.7277 25.9298C91.9855 26.5405 92.2433 27.1512 92.5128 27.754C93.7395 30.4999 95.3837 36.1699 98.8371 36.956C99.0451 36.5687 99.212 36.1835 99.3592 35.7946Z" fill="#D1D1D1"/>
<path d="M90.4653 28.5873C89.6132 26.6889 87.1123 19.4049 86.6255 18.0363C86.5321 17.7837 86.4565 17.5448 86.3828 17.2961C86.7482 19.5478 88.7385 26.2635 89.7955 28.7826C91.5937 32.9849 94.2238 36.8402 96.8218 39.2424C97.2168 38.9935 97.5723 38.6859 97.8981 38.3215C94.1959 36.3049 91.9871 31.9613 90.4653 28.5873Z" fill="#D1D1D1"/>
<path d="M85.4279 23.7016C85.9091 26.4038 86.3964 29.1276 87.3595 31.7099C88.6582 35.1831 90.5683 38.1336 93.1229 40.4968C93.2268 40.4865 93.3209 40.4743 93.4149 40.4621C94.3967 40.287 95.3545 40.0256 96.2017 39.6C95.5499 39.4422 94.9366 39.1391 94.4339 38.5825C92.3818 36.3072 90.8113 33.4433 89.5942 30.6484C88.1433 27.3289 86.7326 23.8034 85.8083 20.2913C85.3512 18.5617 85.4317 16.8962 85.5357 15.215C85.3121 15.2121 85.1221 15.2464 84.942 15.3335C84.5136 18.1027 84.9524 20.9699 85.4279 23.7016Z" fill="#959C9C"/>
<path d="M85.3987 20.7718C85.725 27.7128 89.171 34.9572 93.7539 40.3959C94.1674 40.3136 94.5533 40.2157 94.9313 40.1061C91.8584 37.2138 89.3693 33.7325 87.8094 29.7703C86.712 26.9885 85.6946 23.6926 85.3697 20.4503C85.3621 20.4895 85.3661 20.5209 85.3604 20.5503C85.3862 20.6267 85.4042 20.6913 85.3987 20.7718Z" fill="#D1D1D1"/>
<path opacity="0.41" d="M87.0327 17.4634C86.5638 16.9949 85.9311 15.9035 87.1214 16.2785C87.8893 16.5201 88.4985 17.2095 89.1204 17.6774C91.4663 19.4394 93.2903 21.5785 95.2086 23.7563C97.2451 26.0591 100.074 29.6271 98.9987 32.8916C98.579 34.1546 97.7799 34.3858 96.8494 33.3585C95.582 31.97 94.7983 30.034 93.9043 28.4025C92.2843 25.427 90.905 22.3151 88.8488 19.5908C88.2825 18.8383 87.679 18.1194 87.0327 17.4634Z" fill="#A5AAAA"/>
<path d="M91.2045 20.9372C92.088 21.996 93.0812 23.0152 93.7789 24.1906C94.5853 25.5401 95.6168 26.7807 96.4897 28.1024C96.8512 28.6518 97.199 29.219 97.5604 29.7684C97.7342 30.0265 98.1514 30.76 98.382 30.1529C98.5136 29.7914 97.9195 28.9724 97.7711 28.6888C97.4052 28.006 97.0804 27.3211 96.6753 26.6817C95.9977 25.612 95.1635 24.6137 94.3939 23.5975C93.3718 22.2568 92.3562 21.0397 91.1194 19.9119C90.7747 19.5899 89.9675 18.5052 89.4895 18.6054C89.5888 19.2973 90.5417 20.1048 90.9678 20.6363C91.0408 20.732 91.1236 20.8297 91.2045 20.9372Z" fill="#A5AAAA"/>
<path d="M11.8026 33.2111C11.9657 32.8433 12.2007 32.4432 12.5078 32.0107C15.0433 28.3423 13.11 25.7866 13.0255 21.5519C12.9397 14.7438 15.0038 9.30228 18.7111 3.72136C23.9855 -4.20081 32.2222 -11.8923 41.9737 -13.4083C52.3194 -15.009 57.4882 -3.34939 56.6519 4.86913C55.7533 14.3116 50.6799 22.9668 43.267 28.7807C39.5233 31.6913 35.2691 33.9124 30.6913 35.1867C26.3485 36.4249 21.706 35.1196 17.4899 36.3702C14.0043 37.3971 10.1569 36.7403 11.8026 33.2111Z" fill="#FCE1A7"/>
<path d="M26.6889 0.0981773C29.7821 -2.91053 33.9588 -6.12815 38.0036 -7.70058C39.9831 -8.47622 41.6199 -9.5314 43.7997 -9.82495C46.1287 -10.1334 49.1209 -9.85552 50.9595 -8.21931C53.4227 -6.00539 55.3869 -1.80824 54.433 1.48845C54.1314 -3.87944 48.1412 -6.44327 43.3434 -5.59889C40.6791 -5.13131 38.1637 -3.95051 35.8753 -2.51625C32.6437 -0.485428 29.3793 2.20148 27.0147 5.21257C24.4828 8.42871 22.8014 12.9532 21.4239 16.7693C20.0291 20.6625 19.4031 24.7047 18.2783 28.6587C17.9374 29.8603 17.2855 30.9676 16.5761 32.0052C15.8333 33.0839 14.5791 35.2933 13.3532 35.7048C13.2384 35.5657 13.2753 35.4364 13.3345 35.2799C13.7456 34.2721 14.658 33.3773 15.2122 32.4179C16.7993 29.6604 16.8065 27.0485 16.9143 23.9496C16.9483 22.8163 16.9935 21.6694 17.1294 20.5511C17.6079 16.6617 19.1114 12.9711 20.5866 9.37114C21.9211 6.11167 24.0271 2.66199 26.6889 0.0981773Z" fill="#F2CF91"/>
<path d="M53.4528 -8.02972C52.4247 -8.86831 51.2174 -9.73919 49.1503 -10.4236C45.8774 -11.4768 44.2273 -11.161 40.8034 -10.2658C33.1207 -8.29153 26.3663 -2.66917 22.0097 3.67976C19.421 7.4414 17.9745 11.9298 16.9644 16.3871C15.3589 23.4774 16.77 26.4495 15.2173 30.7602C14.6895 32.219 11.9827 35.5657 13.621 36.7198C11.8597 36.4442 10.8059 35.3571 11.8141 33.1973C11.9772 32.8295 12.2122 32.4294 12.5193 31.9969C15.0548 28.3285 13.1215 25.7728 13.037 21.5381C12.9512 14.73 15.0153 9.28849 18.7226 3.70756C23.997 -4.2146 32.2336 -11.9061 41.9852 -13.4221C47.1165 -14.1995 50.963 -11.7223 53.4528 -8.02972Z" fill="#F2CF91"/>
<path opacity="0.34" d="M19.7689 28.6224C20.6037 27.0952 21.249 25.4362 21.8765 23.6034C24.5975 15.7611 28.2664 8.10008 33.9479 2.05788C37.3328 -1.5324 49.3664 -8.8131 52.1285 -0.892066C53.6093 3.36603 52.0354 8.93424 50.35 12.9318C47.5696 19.5875 41.9674 26.4001 35.4472 29.664C33.5962 30.59 31.5688 31.1444 29.5525 31.6852C25.8381 32.6848 22.1504 31.3843 18.6566 33.4289C17.7443 33.9596 14.034 35.1219 16.2387 33.1186C17.7788 31.7341 18.881 30.2429 19.7689 28.6224Z" fill="#FFF5CA"/>
<path opacity="0.72" d="M52.5791 -9.1975C50.7833 -10.6622 48.9684 -11.8238 46.3568 -12.0645C39.6612 -12.6997 32.5963 -8.62807 27.7042 -4.30944C21.6613 1.02828 18.5557 6.59918 16.4851 13.1963C15.3999 16.6819 15.1465 21.4149 15.4353 24.9512C15.8221 29.6829 13.3813 30.8562 12.4628 35.229C12.3821 35.6639 12.4367 36.0727 12.5994 36.433C11.5051 35.9274 11.0359 34.9074 11.8167 33.2223C11.9797 32.8545 12.2148 32.4543 12.5218 32.0219C15.0574 28.3534 13.124 25.7977 13.0395 21.563C12.9537 14.755 15.0178 9.31346 18.7251 3.73253C23.9996 -4.18963 32.2362 -11.8811 41.9878 -13.3972C46.5473 -14.1172 50.0949 -12.2253 52.5791 -9.1975Z" fill="#ECBB70"/>
<path d="M16.8059 21.3115C16.8895 20.5374 16.9978 19.7608 17.1448 18.9928C17.3287 18.0957 17.6034 17.2271 17.8918 16.3696C19.2043 12.4094 20.5831 7.752 23.02 4.34451C25.6215 0.707128 28.791 -2.5352 32.49 -5.02708C34.1105 -6.11829 40.2112 -10.4073 46.8452 -10.0044C48.6272 -9.89403 50.8321 -8.84685 52.5163 -6.88133C54.2167 -4.87978 54.9439 -1.9648 55.0634 0.659498C55.4305 8.85796 52.9338 17.2929 47.326 23.4407C44.0542 27.0322 39.8099 30.0809 35.3732 31.9938C31.8505 33.514 28.4703 34.4675 24.6597 34.0456C22.8812 33.847 21.1143 34.6139 19.4116 35.274C17.9251 35.8371 16.3219 36.4872 14.7476 35.9543C16.8578 36.082 18.7887 34.8342 20.7794 34.0449C25.4586 32.1704 27.9876 34.7795 35.5271 31.0494C40.2708 28.704 44.1675 24.9621 47.4002 20.7468C48.884 18.8156 50.3352 16.8124 51.3383 14.603C53.4097 9.96414 53.9317 4.78998 53.227 -0.223715C53.0493 -1.46129 52.7859 -2.67774 52.2096 -3.76243C51.2196 -5.57148 49.3499 -6.77776 47.3616 -7.30681C45.7479 -7.73527 43.971 -7.79591 42.3132 -7.55462C27.9988 -5.59431 18.5919 9.63354 17.9142 23.1715C17.793 25.5312 17.8861 28.02 16.8642 30.1686C15.9435 32.081 14.2122 33.5599 13.4509 35.5569C13.8143 33.9638 14.8125 33.0479 15.4997 31.6735C15.9793 30.7217 16.1308 29.3883 16.2856 28.3309C16.6245 26.0122 16.5802 23.6314 16.8059 21.3115Z" fill="#ECBB70"/>
<path d="M54 3.50271C54.1057 6.47991 53.5391 10.0014 52.5203 12.7899C50.6604 17.8972 47.7268 22.3336 43.7316 25.9724C40.6428 28.7798 34.9221 32.491 30.0557 33.2794C27.3007 33.7185 24.9102 33.4305 22.1389 33.8335C21.4094 33.9442 20.2632 34.3979 19.5277 34.572C19.9349 34.3805 20.331 34.2028 20.7408 34.0362C25.42 32.1618 27.949 34.7708 35.4885 31.0408C40.2323 28.6954 44.1289 24.9534 47.3616 20.7382C48.8454 18.807 50.2966 16.8038 51.2997 14.5943C53.4097 9.96419 53.9317 4.79003 53.227 -0.223663C53.1382 -0.842453 53.0159 -1.42023 52.855 -2.00671C52.9998 -1.82034 53.8907 0.977814 54 3.50271Z" fill="#C59C5F"/>
<path d="M50.538 -8.6543C47.596 -9.66534 44.3508 -9.71707 41.005 -8.91762C38.1624 -8.23132 30.5472 -4.01668 23.952 3.76153C20.4691 7.86377 17.608 18.3689 17.3636 20.2639C16.7531 22.3838 18.0486 28.7443 15.0594 32.885C14.5628 33.5499 14.091 34.2122 13.7264 34.9392C13.6707 35.0075 13.6149 35.0759 13.5592 35.1442C13.9867 33.8084 14.8494 32.9186 15.4886 31.6871C15.9682 30.7352 16.1197 29.4019 16.2745 28.3445C16.6245 26.0121 16.5802 23.6314 16.806 21.3114C16.8895 20.5373 16.9979 19.7607 17.1448 18.9927C17.3287 18.0956 17.6034 17.227 17.8918 16.3696C19.2043 12.4093 20.5832 7.75192 23.02 4.34443C25.6215 0.707048 28.7911 -2.53528 32.49 -5.02716C34.1105 -6.11837 40.2112 -10.4074 46.8453 -10.0045C47.9955 -9.93131 49.311 -9.47298 50.538 -8.6543Z" fill="#C59C5F"/>
<path opacity="0.51" d="M45.6954 20.6539C42.5545 24.7847 38.5002 28.216 34.1221 29.7214C31.864 30.4747 28.1682 31.8992 25.7839 31.1838C23.0972 30.3355 23.4699 27.2476 25.2544 25.6755C27.7085 23.5342 31.0915 22.2415 33.6579 20.2145C36.346 18.1502 38.7772 15.7852 40.7996 13.1097C41.3769 12.374 41.9267 11.6159 42.4216 10.8132C43.746 8.79751 44.8913 6.74959 45.9381 4.59854C46.6107 3.32605 47.4639 0.88054 49.1731 0.772196C53.2592 0.576537 51.6422 6.70142 51.107 9.06487C50.3251 12.9344 48.3765 17.0587 45.6954 20.6539Z" fill="#FFF5CA"/>
<path opacity="0.66" d="M40.1958 19.1958C42.7816 16.1375 45.0109 12.7884 47.1083 9.37726C47.6651 8.44277 48.8941 5.25663 50.4512 5.86652C51.8515 6.41678 50.8935 9.18662 50.5682 10.1733C48.3577 16.9978 43.1531 22.4273 37.6676 27.0816C36.7784 27.8359 29.8271 31.1807 30.7974 27.556C31.0988 26.4587 34.6928 24.6552 35.6155 23.8599C37.2748 22.4133 38.7833 20.8437 40.1958 19.1958Z" fill="#FFFAE6"/>
<path opacity="0.51" d="M26.1716 -0.779117C26.2634 -0.863626 26.3663 -0.961804 26.488 -0.999099C26.6097 -1.03639 26.7777 -0.99044 26.8154 -0.868673C26.853 -0.746905 26.7887 -0.640036 26.7244 -0.533165C25.8022 0.877288 24.6196 2.0753 23.629 3.42984C22.429 5.06897 21.5504 6.90189 20.7215 8.72984C20.3028 9.66307 19.8952 10.5826 19.4627 11.5047C19.2774 11.8999 18.6156 13.8868 18.0252 13.5191C17.5693 13.2383 18.1356 12.1523 18.2489 11.7894C18.5459 10.8935 18.8815 10.0062 19.2556 9.12767C20.0288 7.36807 20.9588 5.6681 22.0258 4.07994C23.2652 2.33643 24.6418 0.704733 26.1716 -0.779117Z" fill="#FFFAE6"/>
<path opacity="0.51" d="M34.0113 -6.47249C33.8449 -6.38051 33.6923 -6.27736 33.526 -6.18539C32.4885 -5.52916 31.5247 -4.76733 30.5472 -4.01667C30.3723 -3.88618 29.07 -3.2411 29.4269 -4.04261C29.4664 -4.14699 29.5607 -4.20665 29.6413 -4.27749C30.4662 -4.92498 31.2637 -5.59484 32.1186 -6.19513C33.2675 -6.98805 34.4764 -7.68655 35.7204 -8.28813C38.2085 -9.49129 40.8729 -10.323 43.5954 -10.834C43.952 -10.9074 44.3609 -10.9609 44.6376 -10.7124C44.6195 -10.5223 44.4446 -10.3918 44.2783 -10.2998C43.5881 -9.92944 42.7429 -9.84482 41.9963 -9.65709C41.1279 -9.43206 40.2518 -9.28159 39.4022 -8.99568C38.4558 -8.67496 37.517 -8.27969 36.6356 -7.81484C35.7517 -7.37484 34.8652 -6.9597 34.0113 -6.47249Z" fill="#FFFAE6"/>
<path opacity="0.51" d="M31.03 33.9602C32.3793 33.6493 33.6344 33.0341 34.9084 32.4797C39.8132 30.3567 43.6819 27.6846 47.2282 23.5886C47.4649 23.3264 47.8087 23.1287 48.1002 22.9113C48.1809 22.8404 48.3112 22.7646 48.4046 22.818C48.5391 22.905 48.449 23.1274 48.3349 23.2393C46.3461 25.5097 44.2897 27.6112 41.8219 29.3773C39.5068 31.0401 36.8523 32.6994 34.1621 33.6466C32.2983 34.4483 30.2024 34.9469 28.1854 35.2367C26.2181 35.5215 24.0788 35.2335 22.0945 35.2313C21.8931 35.2264 21.7054 35.2326 21.5211 35.1506C21.5306 34.999 21.6721 34.9096 21.8161 34.8449C23.1682 34.1949 24.9913 34.3387 26.4621 34.3547C27.9741 34.4042 29.5453 34.2971 31.03 33.9602Z" fill="#FFFAE6"/>
</svg>
